<mxfile host="app.diagrams.net" agent="Mozilla/5.0 (Windows NT 10.0; Win64; x64) AppleWebKit/537.36 (KHTML, like Gecko) Chrome/139.0.0.0 Safari/537.36 Edg/139.0.0.0" version="28.1.1">
  <diagram name="Page-1" id="tatGor_TDmOpCSjWYa6Y">
    <mxGraphModel dx="695" dy="778" grid="1" gridSize="10" guides="1" tooltips="1" connect="1" arrows="1" fold="1" page="1" pageScale="1" pageWidth="850" pageHeight="1100" math="0" shadow="0">
      <root>
        <mxCell id="0" />
        <mxCell id="1" parent="0" />
        <mxCell id="bMdoZg1PZ41E8jryX1NN-1" value="REMOTE_CONFIG" style="shape=table;startSize=25;container=1;collapsible=0;childLayout=tableLayout;fixedRows=1;rowLines=1;fontStyle=1;align=center;resizeLast=1;" vertex="1" parent="1">
          <mxGeometry x="355" y="63" width="252" height="214" as="geometry" />
        </mxCell>
        <mxCell id="bMdoZg1PZ41E8jryX1NN-2" style="shape=tableRow;horizontal=0;startSize=0;swimlaneHead=0;swimlaneBody=0;fillColor=none;collapsible=0;dropTarget=0;points=[[0,0.5],[1,0.5]];portConstraint=eastwest;top=0;left=0;right=0;bottom=0;" vertex="1" parent="bMdoZg1PZ41E8jryX1NN-1">
          <mxGeometry y="25" width="252" height="47" as="geometry" />
        </mxCell>
        <mxCell id="bMdoZg1PZ41E8jryX1NN-3" value="text" style="shape=partialRectangle;connectable=0;fillColor=none;top=0;left=0;bottom=0;right=0;align=left;spacingLeft=2;overflow=hidden;fontSize=11;" vertex="1" parent="bMdoZg1PZ41E8jryX1NN-2">
          <mxGeometry width="54" height="47" as="geometry">
            <mxRectangle width="54" height="47" as="alternateBounds" />
          </mxGeometry>
        </mxCell>
        <mxCell id="bMdoZg1PZ41E8jryX1NN-4" value="flag" style="shape=partialRectangle;connectable=0;fillColor=none;top=0;left=0;bottom=0;right=0;align=left;spacingLeft=2;overflow=hidden;fontSize=11;" vertex="1" parent="bMdoZg1PZ41E8jryX1NN-2">
          <mxGeometry x="54" width="176" height="47" as="geometry">
            <mxRectangle width="176" height="47" as="alternateBounds" />
          </mxGeometry>
        </mxCell>
        <mxCell id="bMdoZg1PZ41E8jryX1NN-5" value="PK" style="shape=partialRectangle;connectable=0;fillColor=none;top=0;left=0;bottom=0;right=0;align=left;spacingLeft=2;overflow=hidden;fontSize=11;" vertex="1" parent="bMdoZg1PZ41E8jryX1NN-2">
          <mxGeometry x="230" width="22" height="47" as="geometry">
            <mxRectangle width="22" height="47" as="alternateBounds" />
          </mxGeometry>
        </mxCell>
        <mxCell id="bMdoZg1PZ41E8jryX1NN-6" style="shape=tableRow;horizontal=0;startSize=0;swimlaneHead=0;swimlaneBody=0;fillColor=none;collapsible=0;dropTarget=0;points=[[0,0.5],[1,0.5]];portConstraint=eastwest;top=0;left=0;right=0;bottom=0;" vertex="1" parent="bMdoZg1PZ41E8jryX1NN-1">
          <mxGeometry y="72" width="252" height="47" as="geometry" />
        </mxCell>
        <mxCell id="bMdoZg1PZ41E8jryX1NN-7" value="text" style="shape=partialRectangle;connectable=0;fillColor=none;top=0;left=0;bottom=0;right=0;align=left;spacingLeft=2;overflow=hidden;fontSize=11;" vertex="1" parent="bMdoZg1PZ41E8jryX1NN-6">
          <mxGeometry width="54" height="47" as="geometry">
            <mxRectangle width="54" height="47" as="alternateBounds" />
          </mxGeometry>
        </mxCell>
        <mxCell id="bMdoZg1PZ41E8jryX1NN-8" value="value" style="shape=partialRectangle;connectable=0;fillColor=none;top=0;left=0;bottom=0;right=0;align=left;spacingLeft=2;overflow=hidden;fontSize=11;" vertex="1" parent="bMdoZg1PZ41E8jryX1NN-6">
          <mxGeometry x="54" width="176" height="47" as="geometry">
            <mxRectangle width="176" height="47" as="alternateBounds" />
          </mxGeometry>
        </mxCell>
        <mxCell id="bMdoZg1PZ41E8jryX1NN-9" value="" style="shape=partialRectangle;connectable=0;fillColor=none;top=0;left=0;bottom=0;right=0;align=left;spacingLeft=2;overflow=hidden;fontSize=11;" vertex="1" parent="bMdoZg1PZ41E8jryX1NN-6">
          <mxGeometry x="230" width="22" height="47" as="geometry">
            <mxRectangle width="22" height="47" as="alternateBounds" />
          </mxGeometry>
        </mxCell>
        <mxCell id="bMdoZg1PZ41E8jryX1NN-10" style="shape=tableRow;horizontal=0;startSize=0;swimlaneHead=0;swimlaneBody=0;fillColor=none;collapsible=0;dropTarget=0;points=[[0,0.5],[1,0.5]];portConstraint=eastwest;top=0;left=0;right=0;bottom=0;" vertex="1" parent="bMdoZg1PZ41E8jryX1NN-1">
          <mxGeometry y="119" width="252" height="47" as="geometry" />
        </mxCell>
        <mxCell id="bMdoZg1PZ41E8jryX1NN-11" value="int" style="shape=partialRectangle;connectable=0;fillColor=none;top=0;left=0;bottom=0;right=0;align=left;spacingLeft=2;overflow=hidden;fontSize=11;" vertex="1" parent="bMdoZg1PZ41E8jryX1NN-10">
          <mxGeometry width="54" height="47" as="geometry">
            <mxRectangle width="54" height="47" as="alternateBounds" />
          </mxGeometry>
        </mxCell>
        <mxCell id="bMdoZg1PZ41E8jryX1NN-12" value="version" style="shape=partialRectangle;connectable=0;fillColor=none;top=0;left=0;bottom=0;right=0;align=left;spacingLeft=2;overflow=hidden;fontSize=11;" vertex="1" parent="bMdoZg1PZ41E8jryX1NN-10">
          <mxGeometry x="54" width="176" height="47" as="geometry">
            <mxRectangle width="176" height="47" as="alternateBounds" />
          </mxGeometry>
        </mxCell>
        <mxCell id="bMdoZg1PZ41E8jryX1NN-13" value="" style="shape=partialRectangle;connectable=0;fillColor=none;top=0;left=0;bottom=0;right=0;align=left;spacingLeft=2;overflow=hidden;fontSize=11;" vertex="1" parent="bMdoZg1PZ41E8jryX1NN-10">
          <mxGeometry x="230" width="22" height="47" as="geometry">
            <mxRectangle width="22" height="47" as="alternateBounds" />
          </mxGeometry>
        </mxCell>
        <mxCell id="bMdoZg1PZ41E8jryX1NN-14" style="shape=tableRow;horizontal=0;startSize=0;swimlaneHead=0;swimlaneBody=0;fillColor=none;collapsible=0;dropTarget=0;points=[[0,0.5],[1,0.5]];portConstraint=eastwest;top=0;left=0;right=0;bottom=0;" vertex="1" parent="bMdoZg1PZ41E8jryX1NN-1">
          <mxGeometry y="166" width="252" height="47" as="geometry" />
        </mxCell>
        <mxCell id="bMdoZg1PZ41E8jryX1NN-15" value="timestamp" style="shape=partialRectangle;connectable=0;fillColor=none;top=0;left=0;bottom=0;right=0;align=left;spacingLeft=2;overflow=hidden;fontSize=11;" vertex="1" parent="bMdoZg1PZ41E8jryX1NN-14">
          <mxGeometry width="54" height="47" as="geometry">
            <mxRectangle width="54" height="47" as="alternateBounds" />
          </mxGeometry>
        </mxCell>
        <mxCell id="bMdoZg1PZ41E8jryX1NN-16" value="updated_at" style="shape=partialRectangle;connectable=0;fillColor=none;top=0;left=0;bottom=0;right=0;align=left;spacingLeft=2;overflow=hidden;fontSize=11;" vertex="1" parent="bMdoZg1PZ41E8jryX1NN-14">
          <mxGeometry x="54" width="176" height="47" as="geometry">
            <mxRectangle width="176" height="47" as="alternateBounds" />
          </mxGeometry>
        </mxCell>
        <mxCell id="bMdoZg1PZ41E8jryX1NN-17" value="" style="shape=partialRectangle;connectable=0;fillColor=none;top=0;left=0;bottom=0;right=0;align=left;spacingLeft=2;overflow=hidden;fontSize=11;" vertex="1" parent="bMdoZg1PZ41E8jryX1NN-14">
          <mxGeometry x="230" width="22" height="47" as="geometry">
            <mxRectangle width="22" height="47" as="alternateBounds" />
          </mxGeometry>
        </mxCell>
        <mxCell id="bMdoZg1PZ41E8jryX1NN-18" value="QUIZ_SESSIONS" style="shape=table;startSize=25;container=1;collapsible=0;childLayout=tableLayout;fixedRows=1;rowLines=1;fontStyle=1;align=center;resizeLast=1;" vertex="1" parent="1">
          <mxGeometry x="746" y="20" width="269" height="301" as="geometry" />
        </mxCell>
        <mxCell id="bMdoZg1PZ41E8jryX1NN-19" style="shape=tableRow;horizontal=0;startSize=0;swimlaneHead=0;swimlaneBody=0;fillColor=none;collapsible=0;dropTarget=0;points=[[0,0.5],[1,0.5]];portConstraint=eastwest;top=0;left=0;right=0;bottom=0;" vertex="1" parent="bMdoZg1PZ41E8jryX1NN-18">
          <mxGeometry y="25" width="269" height="46" as="geometry" />
        </mxCell>
        <mxCell id="bMdoZg1PZ41E8jryX1NN-20" value="uuid" style="shape=partialRectangle;connectable=0;fillColor=none;top=0;left=0;bottom=0;right=0;align=left;spacingLeft=2;overflow=hidden;fontSize=11;" vertex="1" parent="bMdoZg1PZ41E8jryX1NN-19">
          <mxGeometry width="54" height="46" as="geometry">
            <mxRectangle width="54" height="46" as="alternateBounds" />
          </mxGeometry>
        </mxCell>
        <mxCell id="bMdoZg1PZ41E8jryX1NN-21" value="id" style="shape=partialRectangle;connectable=0;fillColor=none;top=0;left=0;bottom=0;right=0;align=left;spacingLeft=2;overflow=hidden;fontSize=11;" vertex="1" parent="bMdoZg1PZ41E8jryX1NN-19">
          <mxGeometry x="54" width="193" height="46" as="geometry">
            <mxRectangle width="193" height="46" as="alternateBounds" />
          </mxGeometry>
        </mxCell>
        <mxCell id="bMdoZg1PZ41E8jryX1NN-22" value="PK" style="shape=partialRectangle;connectable=0;fillColor=none;top=0;left=0;bottom=0;right=0;align=left;spacingLeft=2;overflow=hidden;fontSize=11;" vertex="1" parent="bMdoZg1PZ41E8jryX1NN-19">
          <mxGeometry x="247" width="22" height="46" as="geometry">
            <mxRectangle width="22" height="46" as="alternateBounds" />
          </mxGeometry>
        </mxCell>
        <mxCell id="bMdoZg1PZ41E8jryX1NN-23" style="shape=tableRow;horizontal=0;startSize=0;swimlaneHead=0;swimlaneBody=0;fillColor=none;collapsible=0;dropTarget=0;points=[[0,0.5],[1,0.5]];portConstraint=eastwest;top=0;left=0;right=0;bottom=0;" vertex="1" parent="bMdoZg1PZ41E8jryX1NN-18">
          <mxGeometry y="71" width="269" height="46" as="geometry" />
        </mxCell>
        <mxCell id="bMdoZg1PZ41E8jryX1NN-24" value="text" style="shape=partialRectangle;connectable=0;fillColor=none;top=0;left=0;bottom=0;right=0;align=left;spacingLeft=2;overflow=hidden;fontSize=11;" vertex="1" parent="bMdoZg1PZ41E8jryX1NN-23">
          <mxGeometry width="54" height="46" as="geometry">
            <mxRectangle width="54" height="46" as="alternateBounds" />
          </mxGeometry>
        </mxCell>
        <mxCell id="bMdoZg1PZ41E8jryX1NN-25" value="variant" style="shape=partialRectangle;connectable=0;fillColor=none;top=0;left=0;bottom=0;right=0;align=left;spacingLeft=2;overflow=hidden;fontSize=11;" vertex="1" parent="bMdoZg1PZ41E8jryX1NN-23">
          <mxGeometry x="54" width="193" height="46" as="geometry">
            <mxRectangle width="193" height="46" as="alternateBounds" />
          </mxGeometry>
        </mxCell>
        <mxCell id="bMdoZg1PZ41E8jryX1NN-26" value="" style="shape=partialRectangle;connectable=0;fillColor=none;top=0;left=0;bottom=0;right=0;align=left;spacingLeft=2;overflow=hidden;fontSize=11;" vertex="1" parent="bMdoZg1PZ41E8jryX1NN-23">
          <mxGeometry x="247" width="22" height="46" as="geometry">
            <mxRectangle width="22" height="46" as="alternateBounds" />
          </mxGeometry>
        </mxCell>
        <mxCell id="bMdoZg1PZ41E8jryX1NN-27" style="shape=tableRow;horizontal=0;startSize=0;swimlaneHead=0;swimlaneBody=0;fillColor=none;collapsible=0;dropTarget=0;points=[[0,0.5],[1,0.5]];portConstraint=eastwest;top=0;left=0;right=0;bottom=0;" vertex="1" parent="bMdoZg1PZ41E8jryX1NN-18">
          <mxGeometry y="117" width="269" height="46" as="geometry" />
        </mxCell>
        <mxCell id="bMdoZg1PZ41E8jryX1NN-28" value="int" style="shape=partialRectangle;connectable=0;fillColor=none;top=0;left=0;bottom=0;right=0;align=left;spacingLeft=2;overflow=hidden;fontSize=11;" vertex="1" parent="bMdoZg1PZ41E8jryX1NN-27">
          <mxGeometry width="54" height="46" as="geometry">
            <mxRectangle width="54" height="46" as="alternateBounds" />
          </mxGeometry>
        </mxCell>
        <mxCell id="bMdoZg1PZ41E8jryX1NN-29" value="quiz_version" style="shape=partialRectangle;connectable=0;fillColor=none;top=0;left=0;bottom=0;right=0;align=left;spacingLeft=2;overflow=hidden;fontSize=11;" vertex="1" parent="bMdoZg1PZ41E8jryX1NN-27">
          <mxGeometry x="54" width="193" height="46" as="geometry">
            <mxRectangle width="193" height="46" as="alternateBounds" />
          </mxGeometry>
        </mxCell>
        <mxCell id="bMdoZg1PZ41E8jryX1NN-30" value="" style="shape=partialRectangle;connectable=0;fillColor=none;top=0;left=0;bottom=0;right=0;align=left;spacingLeft=2;overflow=hidden;fontSize=11;" vertex="1" parent="bMdoZg1PZ41E8jryX1NN-27">
          <mxGeometry x="247" width="22" height="46" as="geometry">
            <mxRectangle width="22" height="46" as="alternateBounds" />
          </mxGeometry>
        </mxCell>
        <mxCell id="bMdoZg1PZ41E8jryX1NN-31" style="shape=tableRow;horizontal=0;startSize=0;swimlaneHead=0;swimlaneBody=0;fillColor=none;collapsible=0;dropTarget=0;points=[[0,0.5],[1,0.5]];portConstraint=eastwest;top=0;left=0;right=0;bottom=0;" vertex="1" parent="bMdoZg1PZ41E8jryX1NN-18">
          <mxGeometry y="163" width="269" height="46" as="geometry" />
        </mxCell>
        <mxCell id="bMdoZg1PZ41E8jryX1NN-32" value="timestamp" style="shape=partialRectangle;connectable=0;fillColor=none;top=0;left=0;bottom=0;right=0;align=left;spacingLeft=2;overflow=hidden;fontSize=11;" vertex="1" parent="bMdoZg1PZ41E8jryX1NN-31">
          <mxGeometry width="54" height="46" as="geometry">
            <mxRectangle width="54" height="46" as="alternateBounds" />
          </mxGeometry>
        </mxCell>
        <mxCell id="bMdoZg1PZ41E8jryX1NN-33" value="started_at" style="shape=partialRectangle;connectable=0;fillColor=none;top=0;left=0;bottom=0;right=0;align=left;spacingLeft=2;overflow=hidden;fontSize=11;" vertex="1" parent="bMdoZg1PZ41E8jryX1NN-31">
          <mxGeometry x="54" width="193" height="46" as="geometry">
            <mxRectangle width="193" height="46" as="alternateBounds" />
          </mxGeometry>
        </mxCell>
        <mxCell id="bMdoZg1PZ41E8jryX1NN-34" value="" style="shape=partialRectangle;connectable=0;fillColor=none;top=0;left=0;bottom=0;right=0;align=left;spacingLeft=2;overflow=hidden;fontSize=11;" vertex="1" parent="bMdoZg1PZ41E8jryX1NN-31">
          <mxGeometry x="247" width="22" height="46" as="geometry">
            <mxRectangle width="22" height="46" as="alternateBounds" />
          </mxGeometry>
        </mxCell>
        <mxCell id="bMdoZg1PZ41E8jryX1NN-35" style="shape=tableRow;horizontal=0;startSize=0;swimlaneHead=0;swimlaneBody=0;fillColor=none;collapsible=0;dropTarget=0;points=[[0,0.5],[1,0.5]];portConstraint=eastwest;top=0;left=0;right=0;bottom=0;" vertex="1" parent="bMdoZg1PZ41E8jryX1NN-18">
          <mxGeometry y="209" width="269" height="46" as="geometry" />
        </mxCell>
        <mxCell id="bMdoZg1PZ41E8jryX1NN-36" value="timestamp" style="shape=partialRectangle;connectable=0;fillColor=none;top=0;left=0;bottom=0;right=0;align=left;spacingLeft=2;overflow=hidden;fontSize=11;" vertex="1" parent="bMdoZg1PZ41E8jryX1NN-35">
          <mxGeometry width="54" height="46" as="geometry">
            <mxRectangle width="54" height="46" as="alternateBounds" />
          </mxGeometry>
        </mxCell>
        <mxCell id="bMdoZg1PZ41E8jryX1NN-37" value="completed_at" style="shape=partialRectangle;connectable=0;fillColor=none;top=0;left=0;bottom=0;right=0;align=left;spacingLeft=2;overflow=hidden;fontSize=11;" vertex="1" parent="bMdoZg1PZ41E8jryX1NN-35">
          <mxGeometry x="54" width="193" height="46" as="geometry">
            <mxRectangle width="193" height="46" as="alternateBounds" />
          </mxGeometry>
        </mxCell>
        <mxCell id="bMdoZg1PZ41E8jryX1NN-38" value="" style="shape=partialRectangle;connectable=0;fillColor=none;top=0;left=0;bottom=0;right=0;align=left;spacingLeft=2;overflow=hidden;fontSize=11;" vertex="1" parent="bMdoZg1PZ41E8jryX1NN-35">
          <mxGeometry x="247" width="22" height="46" as="geometry">
            <mxRectangle width="22" height="46" as="alternateBounds" />
          </mxGeometry>
        </mxCell>
        <mxCell id="bMdoZg1PZ41E8jryX1NN-39" style="shape=tableRow;horizontal=0;startSize=0;swimlaneHead=0;swimlaneBody=0;fillColor=none;collapsible=0;dropTarget=0;points=[[0,0.5],[1,0.5]];portConstraint=eastwest;top=0;left=0;right=0;bottom=0;" vertex="1" parent="bMdoZg1PZ41E8jryX1NN-18">
          <mxGeometry y="255" width="269" height="46" as="geometry" />
        </mxCell>
        <mxCell id="bMdoZg1PZ41E8jryX1NN-40" value="text" style="shape=partialRectangle;connectable=0;fillColor=none;top=0;left=0;bottom=0;right=0;align=left;spacingLeft=2;overflow=hidden;fontSize=11;" vertex="1" parent="bMdoZg1PZ41E8jryX1NN-39">
          <mxGeometry width="54" height="46" as="geometry">
            <mxRectangle width="54" height="46" as="alternateBounds" />
          </mxGeometry>
        </mxCell>
        <mxCell id="bMdoZg1PZ41E8jryX1NN-41" value="source" style="shape=partialRectangle;connectable=0;fillColor=none;top=0;left=0;bottom=0;right=0;align=left;spacingLeft=2;overflow=hidden;fontSize=11;" vertex="1" parent="bMdoZg1PZ41E8jryX1NN-39">
          <mxGeometry x="54" width="193" height="46" as="geometry">
            <mxRectangle width="193" height="46" as="alternateBounds" />
          </mxGeometry>
        </mxCell>
        <mxCell id="bMdoZg1PZ41E8jryX1NN-42" value="" style="shape=partialRectangle;connectable=0;fillColor=none;top=0;left=0;bottom=0;right=0;align=left;spacingLeft=2;overflow=hidden;fontSize=11;" vertex="1" parent="bMdoZg1PZ41E8jryX1NN-39">
          <mxGeometry x="247" width="22" height="46" as="geometry">
            <mxRectangle width="22" height="46" as="alternateBounds" />
          </mxGeometry>
        </mxCell>
        <mxCell id="bMdoZg1PZ41E8jryX1NN-43" value="CONFIG_SNAPSHOTS" style="shape=table;startSize=25;container=1;collapsible=0;childLayout=tableLayout;fixedRows=1;rowLines=1;fontStyle=1;align=center;resizeLast=1;" vertex="1" parent="1">
          <mxGeometry x="1557" y="444" width="248" height="257" as="geometry" />
        </mxCell>
        <mxCell id="bMdoZg1PZ41E8jryX1NN-44" style="shape=tableRow;horizontal=0;startSize=0;swimlaneHead=0;swimlaneBody=0;fillColor=none;collapsible=0;dropTarget=0;points=[[0,0.5],[1,0.5]];portConstraint=eastwest;top=0;left=0;right=0;bottom=0;" vertex="1" parent="bMdoZg1PZ41E8jryX1NN-43">
          <mxGeometry y="25" width="248" height="46" as="geometry" />
        </mxCell>
        <mxCell id="bMdoZg1PZ41E8jryX1NN-45" value="uuid" style="shape=partialRectangle;connectable=0;fillColor=none;top=0;left=0;bottom=0;right=0;align=left;spacingLeft=2;overflow=hidden;fontSize=11;" vertex="1" parent="bMdoZg1PZ41E8jryX1NN-44">
          <mxGeometry width="54" height="46" as="geometry">
            <mxRectangle width="54" height="46" as="alternateBounds" />
          </mxGeometry>
        </mxCell>
        <mxCell id="bMdoZg1PZ41E8jryX1NN-46" value="id" style="shape=partialRectangle;connectable=0;fillColor=none;top=0;left=0;bottom=0;right=0;align=left;spacingLeft=2;overflow=hidden;fontSize=11;" vertex="1" parent="bMdoZg1PZ41E8jryX1NN-44">
          <mxGeometry x="54" width="172" height="46" as="geometry">
            <mxRectangle width="172" height="46" as="alternateBounds" />
          </mxGeometry>
        </mxCell>
        <mxCell id="bMdoZg1PZ41E8jryX1NN-47" value="PK" style="shape=partialRectangle;connectable=0;fillColor=none;top=0;left=0;bottom=0;right=0;align=left;spacingLeft=2;overflow=hidden;fontSize=11;" vertex="1" parent="bMdoZg1PZ41E8jryX1NN-44">
          <mxGeometry x="226" width="22" height="46" as="geometry">
            <mxRectangle width="22" height="46" as="alternateBounds" />
          </mxGeometry>
        </mxCell>
        <mxCell id="bMdoZg1PZ41E8jryX1NN-48" style="shape=tableRow;horizontal=0;startSize=0;swimlaneHead=0;swimlaneBody=0;fillColor=none;collapsible=0;dropTarget=0;points=[[0,0.5],[1,0.5]];portConstraint=eastwest;top=0;left=0;right=0;bottom=0;" vertex="1" parent="bMdoZg1PZ41E8jryX1NN-43">
          <mxGeometry y="71" width="248" height="46" as="geometry" />
        </mxCell>
        <mxCell id="bMdoZg1PZ41E8jryX1NN-49" value="uuid" style="shape=partialRectangle;connectable=0;fillColor=none;top=0;left=0;bottom=0;right=0;align=left;spacingLeft=2;overflow=hidden;fontSize=11;" vertex="1" parent="bMdoZg1PZ41E8jryX1NN-48">
          <mxGeometry width="54" height="46" as="geometry">
            <mxRectangle width="54" height="46" as="alternateBounds" />
          </mxGeometry>
        </mxCell>
        <mxCell id="bMdoZg1PZ41E8jryX1NN-50" value="session_id" style="shape=partialRectangle;connectable=0;fillColor=none;top=0;left=0;bottom=0;right=0;align=left;spacingLeft=2;overflow=hidden;fontSize=11;" vertex="1" parent="bMdoZg1PZ41E8jryX1NN-48">
          <mxGeometry x="54" width="172" height="46" as="geometry">
            <mxRectangle width="172" height="46" as="alternateBounds" />
          </mxGeometry>
        </mxCell>
        <mxCell id="bMdoZg1PZ41E8jryX1NN-51" value="" style="shape=partialRectangle;connectable=0;fillColor=none;top=0;left=0;bottom=0;right=0;align=left;spacingLeft=2;overflow=hidden;fontSize=11;" vertex="1" parent="bMdoZg1PZ41E8jryX1NN-48">
          <mxGeometry x="226" width="22" height="46" as="geometry">
            <mxRectangle width="22" height="46" as="alternateBounds" />
          </mxGeometry>
        </mxCell>
        <mxCell id="bMdoZg1PZ41E8jryX1NN-52" style="shape=tableRow;horizontal=0;startSize=0;swimlaneHead=0;swimlaneBody=0;fillColor=none;collapsible=0;dropTarget=0;points=[[0,0.5],[1,0.5]];portConstraint=eastwest;top=0;left=0;right=0;bottom=0;" vertex="1" parent="bMdoZg1PZ41E8jryX1NN-43">
          <mxGeometry y="117" width="248" height="46" as="geometry" />
        </mxCell>
        <mxCell id="bMdoZg1PZ41E8jryX1NN-53" value="int" style="shape=partialRectangle;connectable=0;fillColor=none;top=0;left=0;bottom=0;right=0;align=left;spacingLeft=2;overflow=hidden;fontSize=11;" vertex="1" parent="bMdoZg1PZ41E8jryX1NN-52">
          <mxGeometry width="54" height="46" as="geometry">
            <mxRectangle width="54" height="46" as="alternateBounds" />
          </mxGeometry>
        </mxCell>
        <mxCell id="bMdoZg1PZ41E8jryX1NN-54" value="version" style="shape=partialRectangle;connectable=0;fillColor=none;top=0;left=0;bottom=0;right=0;align=left;spacingLeft=2;overflow=hidden;fontSize=11;" vertex="1" parent="bMdoZg1PZ41E8jryX1NN-52">
          <mxGeometry x="54" width="172" height="46" as="geometry">
            <mxRectangle width="172" height="46" as="alternateBounds" />
          </mxGeometry>
        </mxCell>
        <mxCell id="bMdoZg1PZ41E8jryX1NN-55" value="" style="shape=partialRectangle;connectable=0;fillColor=none;top=0;left=0;bottom=0;right=0;align=left;spacingLeft=2;overflow=hidden;fontSize=11;" vertex="1" parent="bMdoZg1PZ41E8jryX1NN-52">
          <mxGeometry x="226" width="22" height="46" as="geometry">
            <mxRectangle width="22" height="46" as="alternateBounds" />
          </mxGeometry>
        </mxCell>
        <mxCell id="bMdoZg1PZ41E8jryX1NN-56" style="shape=tableRow;horizontal=0;startSize=0;swimlaneHead=0;swimlaneBody=0;fillColor=none;collapsible=0;dropTarget=0;points=[[0,0.5],[1,0.5]];portConstraint=eastwest;top=0;left=0;right=0;bottom=0;" vertex="1" parent="bMdoZg1PZ41E8jryX1NN-43">
          <mxGeometry y="163" width="248" height="46" as="geometry" />
        </mxCell>
        <mxCell id="bMdoZg1PZ41E8jryX1NN-57" value="json" style="shape=partialRectangle;connectable=0;fillColor=none;top=0;left=0;bottom=0;right=0;align=left;spacingLeft=2;overflow=hidden;fontSize=11;" vertex="1" parent="bMdoZg1PZ41E8jryX1NN-56">
          <mxGeometry width="54" height="46" as="geometry">
            <mxRectangle width="54" height="46" as="alternateBounds" />
          </mxGeometry>
        </mxCell>
        <mxCell id="bMdoZg1PZ41E8jryX1NN-58" value="flags_json" style="shape=partialRectangle;connectable=0;fillColor=none;top=0;left=0;bottom=0;right=0;align=left;spacingLeft=2;overflow=hidden;fontSize=11;" vertex="1" parent="bMdoZg1PZ41E8jryX1NN-56">
          <mxGeometry x="54" width="172" height="46" as="geometry">
            <mxRectangle width="172" height="46" as="alternateBounds" />
          </mxGeometry>
        </mxCell>
        <mxCell id="bMdoZg1PZ41E8jryX1NN-59" value="" style="shape=partialRectangle;connectable=0;fillColor=none;top=0;left=0;bottom=0;right=0;align=left;spacingLeft=2;overflow=hidden;fontSize=11;" vertex="1" parent="bMdoZg1PZ41E8jryX1NN-56">
          <mxGeometry x="226" width="22" height="46" as="geometry">
            <mxRectangle width="22" height="46" as="alternateBounds" />
          </mxGeometry>
        </mxCell>
        <mxCell id="bMdoZg1PZ41E8jryX1NN-60" style="shape=tableRow;horizontal=0;startSize=0;swimlaneHead=0;swimlaneBody=0;fillColor=none;collapsible=0;dropTarget=0;points=[[0,0.5],[1,0.5]];portConstraint=eastwest;top=0;left=0;right=0;bottom=0;" vertex="1" parent="bMdoZg1PZ41E8jryX1NN-43">
          <mxGeometry y="209" width="248" height="46" as="geometry" />
        </mxCell>
        <mxCell id="bMdoZg1PZ41E8jryX1NN-61" value="timestamp" style="shape=partialRectangle;connectable=0;fillColor=none;top=0;left=0;bottom=0;right=0;align=left;spacingLeft=2;overflow=hidden;fontSize=11;" vertex="1" parent="bMdoZg1PZ41E8jryX1NN-60">
          <mxGeometry width="54" height="46" as="geometry">
            <mxRectangle width="54" height="46" as="alternateBounds" />
          </mxGeometry>
        </mxCell>
        <mxCell id="bMdoZg1PZ41E8jryX1NN-62" value="created_at" style="shape=partialRectangle;connectable=0;fillColor=none;top=0;left=0;bottom=0;right=0;align=left;spacingLeft=2;overflow=hidden;fontSize=11;" vertex="1" parent="bMdoZg1PZ41E8jryX1NN-60">
          <mxGeometry x="54" width="172" height="46" as="geometry">
            <mxRectangle width="172" height="46" as="alternateBounds" />
          </mxGeometry>
        </mxCell>
        <mxCell id="bMdoZg1PZ41E8jryX1NN-63" value="" style="shape=partialRectangle;connectable=0;fillColor=none;top=0;left=0;bottom=0;right=0;align=left;spacingLeft=2;overflow=hidden;fontSize=11;" vertex="1" parent="bMdoZg1PZ41E8jryX1NN-60">
          <mxGeometry x="226" width="22" height="46" as="geometry">
            <mxRectangle width="22" height="46" as="alternateBounds" />
          </mxGeometry>
        </mxCell>
        <mxCell id="bMdoZg1PZ41E8jryX1NN-64" value="FEEDBACK" style="shape=table;startSize=25;container=1;collapsible=0;childLayout=tableLayout;fixedRows=1;rowLines=1;fontStyle=1;align=center;resizeLast=1;" vertex="1" parent="1">
          <mxGeometry x="755" y="422" width="252" height="301" as="geometry" />
        </mxCell>
        <mxCell id="bMdoZg1PZ41E8jryX1NN-65" style="shape=tableRow;horizontal=0;startSize=0;swimlaneHead=0;swimlaneBody=0;fillColor=none;collapsible=0;dropTarget=0;points=[[0,0.5],[1,0.5]];portConstraint=eastwest;top=0;left=0;right=0;bottom=0;" vertex="1" parent="bMdoZg1PZ41E8jryX1NN-64">
          <mxGeometry y="25" width="252" height="46" as="geometry" />
        </mxCell>
        <mxCell id="bMdoZg1PZ41E8jryX1NN-66" value="uuid" style="shape=partialRectangle;connectable=0;fillColor=none;top=0;left=0;bottom=0;right=0;align=left;spacingLeft=2;overflow=hidden;fontSize=11;" vertex="1" parent="bMdoZg1PZ41E8jryX1NN-65">
          <mxGeometry width="54" height="46" as="geometry">
            <mxRectangle width="54" height="46" as="alternateBounds" />
          </mxGeometry>
        </mxCell>
        <mxCell id="bMdoZg1PZ41E8jryX1NN-67" value="id" style="shape=partialRectangle;connectable=0;fillColor=none;top=0;left=0;bottom=0;right=0;align=left;spacingLeft=2;overflow=hidden;fontSize=11;" vertex="1" parent="bMdoZg1PZ41E8jryX1NN-65">
          <mxGeometry x="54" width="176" height="46" as="geometry">
            <mxRectangle width="176" height="46" as="alternateBounds" />
          </mxGeometry>
        </mxCell>
        <mxCell id="bMdoZg1PZ41E8jryX1NN-68" value="PK" style="shape=partialRectangle;connectable=0;fillColor=none;top=0;left=0;bottom=0;right=0;align=left;spacingLeft=2;overflow=hidden;fontSize=11;" vertex="1" parent="bMdoZg1PZ41E8jryX1NN-65">
          <mxGeometry x="230" width="22" height="46" as="geometry">
            <mxRectangle width="22" height="46" as="alternateBounds" />
          </mxGeometry>
        </mxCell>
        <mxCell id="bMdoZg1PZ41E8jryX1NN-69" style="shape=tableRow;horizontal=0;startSize=0;swimlaneHead=0;swimlaneBody=0;fillColor=none;collapsible=0;dropTarget=0;points=[[0,0.5],[1,0.5]];portConstraint=eastwest;top=0;left=0;right=0;bottom=0;" vertex="1" parent="bMdoZg1PZ41E8jryX1NN-64">
          <mxGeometry y="71" width="252" height="46" as="geometry" />
        </mxCell>
        <mxCell id="bMdoZg1PZ41E8jryX1NN-70" value="uuid" style="shape=partialRectangle;connectable=0;fillColor=none;top=0;left=0;bottom=0;right=0;align=left;spacingLeft=2;overflow=hidden;fontSize=11;" vertex="1" parent="bMdoZg1PZ41E8jryX1NN-69">
          <mxGeometry width="54" height="46" as="geometry">
            <mxRectangle width="54" height="46" as="alternateBounds" />
          </mxGeometry>
        </mxCell>
        <mxCell id="bMdoZg1PZ41E8jryX1NN-71" value="session_id" style="shape=partialRectangle;connectable=0;fillColor=none;top=0;left=0;bottom=0;right=0;align=left;spacingLeft=2;overflow=hidden;fontSize=11;" vertex="1" parent="bMdoZg1PZ41E8jryX1NN-69">
          <mxGeometry x="54" width="176" height="46" as="geometry">
            <mxRectangle width="176" height="46" as="alternateBounds" />
          </mxGeometry>
        </mxCell>
        <mxCell id="bMdoZg1PZ41E8jryX1NN-72" value="" style="shape=partialRectangle;connectable=0;fillColor=none;top=0;left=0;bottom=0;right=0;align=left;spacingLeft=2;overflow=hidden;fontSize=11;" vertex="1" parent="bMdoZg1PZ41E8jryX1NN-69">
          <mxGeometry x="230" width="22" height="46" as="geometry">
            <mxRectangle width="22" height="46" as="alternateBounds" />
          </mxGeometry>
        </mxCell>
        <mxCell id="bMdoZg1PZ41E8jryX1NN-73" style="shape=tableRow;horizontal=0;startSize=0;swimlaneHead=0;swimlaneBody=0;fillColor=none;collapsible=0;dropTarget=0;points=[[0,0.5],[1,0.5]];portConstraint=eastwest;top=0;left=0;right=0;bottom=0;" vertex="1" parent="bMdoZg1PZ41E8jryX1NN-64">
          <mxGeometry y="117" width="252" height="46" as="geometry" />
        </mxCell>
        <mxCell id="bMdoZg1PZ41E8jryX1NN-74" value="text" style="shape=partialRectangle;connectable=0;fillColor=none;top=0;left=0;bottom=0;right=0;align=left;spacingLeft=2;overflow=hidden;fontSize=11;" vertex="1" parent="bMdoZg1PZ41E8jryX1NN-73">
          <mxGeometry width="54" height="46" as="geometry">
            <mxRectangle width="54" height="46" as="alternateBounds" />
          </mxGeometry>
        </mxCell>
        <mxCell id="bMdoZg1PZ41E8jryX1NN-75" value="label_type" style="shape=partialRectangle;connectable=0;fillColor=none;top=0;left=0;bottom=0;right=0;align=left;spacingLeft=2;overflow=hidden;fontSize=11;" vertex="1" parent="bMdoZg1PZ41E8jryX1NN-73">
          <mxGeometry x="54" width="176" height="46" as="geometry">
            <mxRectangle width="176" height="46" as="alternateBounds" />
          </mxGeometry>
        </mxCell>
        <mxCell id="bMdoZg1PZ41E8jryX1NN-76" value="" style="shape=partialRectangle;connectable=0;fillColor=none;top=0;left=0;bottom=0;right=0;align=left;spacingLeft=2;overflow=hidden;fontSize=11;" vertex="1" parent="bMdoZg1PZ41E8jryX1NN-73">
          <mxGeometry x="230" width="22" height="46" as="geometry">
            <mxRectangle width="22" height="46" as="alternateBounds" />
          </mxGeometry>
        </mxCell>
        <mxCell id="bMdoZg1PZ41E8jryX1NN-77" style="shape=tableRow;horizontal=0;startSize=0;swimlaneHead=0;swimlaneBody=0;fillColor=none;collapsible=0;dropTarget=0;points=[[0,0.5],[1,0.5]];portConstraint=eastwest;top=0;left=0;right=0;bottom=0;" vertex="1" parent="bMdoZg1PZ41E8jryX1NN-64">
          <mxGeometry y="163" width="252" height="46" as="geometry" />
        </mxCell>
        <mxCell id="bMdoZg1PZ41E8jryX1NN-78" value="text" style="shape=partialRectangle;connectable=0;fillColor=none;top=0;left=0;bottom=0;right=0;align=left;spacingLeft=2;overflow=hidden;fontSize=11;" vertex="1" parent="bMdoZg1PZ41E8jryX1NN-77">
          <mxGeometry width="54" height="46" as="geometry">
            <mxRectangle width="54" height="46" as="alternateBounds" />
          </mxGeometry>
        </mxCell>
        <mxCell id="bMdoZg1PZ41E8jryX1NN-79" value="label_value" style="shape=partialRectangle;connectable=0;fillColor=none;top=0;left=0;bottom=0;right=0;align=left;spacingLeft=2;overflow=hidden;fontSize=11;" vertex="1" parent="bMdoZg1PZ41E8jryX1NN-77">
          <mxGeometry x="54" width="176" height="46" as="geometry">
            <mxRectangle width="176" height="46" as="alternateBounds" />
          </mxGeometry>
        </mxCell>
        <mxCell id="bMdoZg1PZ41E8jryX1NN-80" value="" style="shape=partialRectangle;connectable=0;fillColor=none;top=0;left=0;bottom=0;right=0;align=left;spacingLeft=2;overflow=hidden;fontSize=11;" vertex="1" parent="bMdoZg1PZ41E8jryX1NN-77">
          <mxGeometry x="230" width="22" height="46" as="geometry">
            <mxRectangle width="22" height="46" as="alternateBounds" />
          </mxGeometry>
        </mxCell>
        <mxCell id="bMdoZg1PZ41E8jryX1NN-81" style="shape=tableRow;horizontal=0;startSize=0;swimlaneHead=0;swimlaneBody=0;fillColor=none;collapsible=0;dropTarget=0;points=[[0,0.5],[1,0.5]];portConstraint=eastwest;top=0;left=0;right=0;bottom=0;" vertex="1" parent="bMdoZg1PZ41E8jryX1NN-64">
          <mxGeometry y="209" width="252" height="46" as="geometry" />
        </mxCell>
        <mxCell id="bMdoZg1PZ41E8jryX1NN-82" value="text" style="shape=partialRectangle;connectable=0;fillColor=none;top=0;left=0;bottom=0;right=0;align=left;spacingLeft=2;overflow=hidden;fontSize=11;" vertex="1" parent="bMdoZg1PZ41E8jryX1NN-81">
          <mxGeometry width="54" height="46" as="geometry">
            <mxRectangle width="54" height="46" as="alternateBounds" />
          </mxGeometry>
        </mxCell>
        <mxCell id="bMdoZg1PZ41E8jryX1NN-83" value="note" style="shape=partialRectangle;connectable=0;fillColor=none;top=0;left=0;bottom=0;right=0;align=left;spacingLeft=2;overflow=hidden;fontSize=11;" vertex="1" parent="bMdoZg1PZ41E8jryX1NN-81">
          <mxGeometry x="54" width="176" height="46" as="geometry">
            <mxRectangle width="176" height="46" as="alternateBounds" />
          </mxGeometry>
        </mxCell>
        <mxCell id="bMdoZg1PZ41E8jryX1NN-84" value="" style="shape=partialRectangle;connectable=0;fillColor=none;top=0;left=0;bottom=0;right=0;align=left;spacingLeft=2;overflow=hidden;fontSize=11;" vertex="1" parent="bMdoZg1PZ41E8jryX1NN-81">
          <mxGeometry x="230" width="22" height="46" as="geometry">
            <mxRectangle width="22" height="46" as="alternateBounds" />
          </mxGeometry>
        </mxCell>
        <mxCell id="bMdoZg1PZ41E8jryX1NN-85" style="shape=tableRow;horizontal=0;startSize=0;swimlaneHead=0;swimlaneBody=0;fillColor=none;collapsible=0;dropTarget=0;points=[[0,0.5],[1,0.5]];portConstraint=eastwest;top=0;left=0;right=0;bottom=0;" vertex="1" parent="bMdoZg1PZ41E8jryX1NN-64">
          <mxGeometry y="255" width="252" height="46" as="geometry" />
        </mxCell>
        <mxCell id="bMdoZg1PZ41E8jryX1NN-86" value="timestamp" style="shape=partialRectangle;connectable=0;fillColor=none;top=0;left=0;bottom=0;right=0;align=left;spacingLeft=2;overflow=hidden;fontSize=11;" vertex="1" parent="bMdoZg1PZ41E8jryX1NN-85">
          <mxGeometry width="54" height="46" as="geometry">
            <mxRectangle width="54" height="46" as="alternateBounds" />
          </mxGeometry>
        </mxCell>
        <mxCell id="bMdoZg1PZ41E8jryX1NN-87" value="created_at" style="shape=partialRectangle;connectable=0;fillColor=none;top=0;left=0;bottom=0;right=0;align=left;spacingLeft=2;overflow=hidden;fontSize=11;" vertex="1" parent="bMdoZg1PZ41E8jryX1NN-85">
          <mxGeometry x="54" width="176" height="46" as="geometry">
            <mxRectangle width="176" height="46" as="alternateBounds" />
          </mxGeometry>
        </mxCell>
        <mxCell id="bMdoZg1PZ41E8jryX1NN-88" value="" style="shape=partialRectangle;connectable=0;fillColor=none;top=0;left=0;bottom=0;right=0;align=left;spacingLeft=2;overflow=hidden;fontSize=11;" vertex="1" parent="bMdoZg1PZ41E8jryX1NN-85">
          <mxGeometry x="230" width="22" height="46" as="geometry">
            <mxRectangle width="22" height="46" as="alternateBounds" />
          </mxGeometry>
        </mxCell>
        <mxCell id="bMdoZg1PZ41E8jryX1NN-89" value="INFER_LOGS" style="shape=table;startSize=25;container=1;collapsible=0;childLayout=tableLayout;fixedRows=1;rowLines=1;fontStyle=1;align=center;resizeLast=1;" vertex="1" parent="1">
          <mxGeometry x="1147" y="422" width="270" height="301" as="geometry" />
        </mxCell>
        <mxCell id="bMdoZg1PZ41E8jryX1NN-90" style="shape=tableRow;horizontal=0;startSize=0;swimlaneHead=0;swimlaneBody=0;fillColor=none;collapsible=0;dropTarget=0;points=[[0,0.5],[1,0.5]];portConstraint=eastwest;top=0;left=0;right=0;bottom=0;" vertex="1" parent="bMdoZg1PZ41E8jryX1NN-89">
          <mxGeometry y="25" width="270" height="46" as="geometry" />
        </mxCell>
        <mxCell id="bMdoZg1PZ41E8jryX1NN-91" value="uuid" style="shape=partialRectangle;connectable=0;fillColor=none;top=0;left=0;bottom=0;right=0;align=left;spacingLeft=2;overflow=hidden;fontSize=11;" vertex="1" parent="bMdoZg1PZ41E8jryX1NN-90">
          <mxGeometry width="54" height="46" as="geometry">
            <mxRectangle width="54" height="46" as="alternateBounds" />
          </mxGeometry>
        </mxCell>
        <mxCell id="bMdoZg1PZ41E8jryX1NN-92" value="id" style="shape=partialRectangle;connectable=0;fillColor=none;top=0;left=0;bottom=0;right=0;align=left;spacingLeft=2;overflow=hidden;fontSize=11;" vertex="1" parent="bMdoZg1PZ41E8jryX1NN-90">
          <mxGeometry x="54" width="194" height="46" as="geometry">
            <mxRectangle width="194" height="46" as="alternateBounds" />
          </mxGeometry>
        </mxCell>
        <mxCell id="bMdoZg1PZ41E8jryX1NN-93" value="PK" style="shape=partialRectangle;connectable=0;fillColor=none;top=0;left=0;bottom=0;right=0;align=left;spacingLeft=2;overflow=hidden;fontSize=11;" vertex="1" parent="bMdoZg1PZ41E8jryX1NN-90">
          <mxGeometry x="248" width="22" height="46" as="geometry">
            <mxRectangle width="22" height="46" as="alternateBounds" />
          </mxGeometry>
        </mxCell>
        <mxCell id="bMdoZg1PZ41E8jryX1NN-94" style="shape=tableRow;horizontal=0;startSize=0;swimlaneHead=0;swimlaneBody=0;fillColor=none;collapsible=0;dropTarget=0;points=[[0,0.5],[1,0.5]];portConstraint=eastwest;top=0;left=0;right=0;bottom=0;" vertex="1" parent="bMdoZg1PZ41E8jryX1NN-89">
          <mxGeometry y="71" width="270" height="46" as="geometry" />
        </mxCell>
        <mxCell id="bMdoZg1PZ41E8jryX1NN-95" value="uuid" style="shape=partialRectangle;connectable=0;fillColor=none;top=0;left=0;bottom=0;right=0;align=left;spacingLeft=2;overflow=hidden;fontSize=11;" vertex="1" parent="bMdoZg1PZ41E8jryX1NN-94">
          <mxGeometry width="54" height="46" as="geometry">
            <mxRectangle width="54" height="46" as="alternateBounds" />
          </mxGeometry>
        </mxCell>
        <mxCell id="bMdoZg1PZ41E8jryX1NN-96" value="session_id" style="shape=partialRectangle;connectable=0;fillColor=none;top=0;left=0;bottom=0;right=0;align=left;spacingLeft=2;overflow=hidden;fontSize=11;" vertex="1" parent="bMdoZg1PZ41E8jryX1NN-94">
          <mxGeometry x="54" width="194" height="46" as="geometry">
            <mxRectangle width="194" height="46" as="alternateBounds" />
          </mxGeometry>
        </mxCell>
        <mxCell id="bMdoZg1PZ41E8jryX1NN-97" value="" style="shape=partialRectangle;connectable=0;fillColor=none;top=0;left=0;bottom=0;right=0;align=left;spacingLeft=2;overflow=hidden;fontSize=11;" vertex="1" parent="bMdoZg1PZ41E8jryX1NN-94">
          <mxGeometry x="248" width="22" height="46" as="geometry">
            <mxRectangle width="22" height="46" as="alternateBounds" />
          </mxGeometry>
        </mxCell>
        <mxCell id="bMdoZg1PZ41E8jryX1NN-98" style="shape=tableRow;horizontal=0;startSize=0;swimlaneHead=0;swimlaneBody=0;fillColor=none;collapsible=0;dropTarget=0;points=[[0,0.5],[1,0.5]];portConstraint=eastwest;top=0;left=0;right=0;bottom=0;" vertex="1" parent="bMdoZg1PZ41E8jryX1NN-89">
          <mxGeometry y="117" width="270" height="46" as="geometry" />
        </mxCell>
        <mxCell id="bMdoZg1PZ41E8jryX1NN-99" value="json" style="shape=partialRectangle;connectable=0;fillColor=none;top=0;left=0;bottom=0;right=0;align=left;spacingLeft=2;overflow=hidden;fontSize=11;" vertex="1" parent="bMdoZg1PZ41E8jryX1NN-98">
          <mxGeometry width="54" height="46" as="geometry">
            <mxRectangle width="54" height="46" as="alternateBounds" />
          </mxGeometry>
        </mxCell>
        <mxCell id="bMdoZg1PZ41E8jryX1NN-100" value="request_json" style="shape=partialRectangle;connectable=0;fillColor=none;top=0;left=0;bottom=0;right=0;align=left;spacingLeft=2;overflow=hidden;fontSize=11;" vertex="1" parent="bMdoZg1PZ41E8jryX1NN-98">
          <mxGeometry x="54" width="194" height="46" as="geometry">
            <mxRectangle width="194" height="46" as="alternateBounds" />
          </mxGeometry>
        </mxCell>
        <mxCell id="bMdoZg1PZ41E8jryX1NN-101" value="" style="shape=partialRectangle;connectable=0;fillColor=none;top=0;left=0;bottom=0;right=0;align=left;spacingLeft=2;overflow=hidden;fontSize=11;" vertex="1" parent="bMdoZg1PZ41E8jryX1NN-98">
          <mxGeometry x="248" width="22" height="46" as="geometry">
            <mxRectangle width="22" height="46" as="alternateBounds" />
          </mxGeometry>
        </mxCell>
        <mxCell id="bMdoZg1PZ41E8jryX1NN-102" style="shape=tableRow;horizontal=0;startSize=0;swimlaneHead=0;swimlaneBody=0;fillColor=none;collapsible=0;dropTarget=0;points=[[0,0.5],[1,0.5]];portConstraint=eastwest;top=0;left=0;right=0;bottom=0;" vertex="1" parent="bMdoZg1PZ41E8jryX1NN-89">
          <mxGeometry y="163" width="270" height="46" as="geometry" />
        </mxCell>
        <mxCell id="bMdoZg1PZ41E8jryX1NN-103" value="json" style="shape=partialRectangle;connectable=0;fillColor=none;top=0;left=0;bottom=0;right=0;align=left;spacingLeft=2;overflow=hidden;fontSize=11;" vertex="1" parent="bMdoZg1PZ41E8jryX1NN-102">
          <mxGeometry width="54" height="46" as="geometry">
            <mxRectangle width="54" height="46" as="alternateBounds" />
          </mxGeometry>
        </mxCell>
        <mxCell id="bMdoZg1PZ41E8jryX1NN-104" value="response_json" style="shape=partialRectangle;connectable=0;fillColor=none;top=0;left=0;bottom=0;right=0;align=left;spacingLeft=2;overflow=hidden;fontSize=11;" vertex="1" parent="bMdoZg1PZ41E8jryX1NN-102">
          <mxGeometry x="54" width="194" height="46" as="geometry">
            <mxRectangle width="194" height="46" as="alternateBounds" />
          </mxGeometry>
        </mxCell>
        <mxCell id="bMdoZg1PZ41E8jryX1NN-105" value="" style="shape=partialRectangle;connectable=0;fillColor=none;top=0;left=0;bottom=0;right=0;align=left;spacingLeft=2;overflow=hidden;fontSize=11;" vertex="1" parent="bMdoZg1PZ41E8jryX1NN-102">
          <mxGeometry x="248" width="22" height="46" as="geometry">
            <mxRectangle width="22" height="46" as="alternateBounds" />
          </mxGeometry>
        </mxCell>
        <mxCell id="bMdoZg1PZ41E8jryX1NN-106" style="shape=tableRow;horizontal=0;startSize=0;swimlaneHead=0;swimlaneBody=0;fillColor=none;collapsible=0;dropTarget=0;points=[[0,0.5],[1,0.5]];portConstraint=eastwest;top=0;left=0;right=0;bottom=0;" vertex="1" parent="bMdoZg1PZ41E8jryX1NN-89">
          <mxGeometry y="209" width="270" height="46" as="geometry" />
        </mxCell>
        <mxCell id="bMdoZg1PZ41E8jryX1NN-107" value="int" style="shape=partialRectangle;connectable=0;fillColor=none;top=0;left=0;bottom=0;right=0;align=left;spacingLeft=2;overflow=hidden;fontSize=11;" vertex="1" parent="bMdoZg1PZ41E8jryX1NN-106">
          <mxGeometry width="54" height="46" as="geometry">
            <mxRectangle width="54" height="46" as="alternateBounds" />
          </mxGeometry>
        </mxCell>
        <mxCell id="bMdoZg1PZ41E8jryX1NN-108" value="latency_ms" style="shape=partialRectangle;connectable=0;fillColor=none;top=0;left=0;bottom=0;right=0;align=left;spacingLeft=2;overflow=hidden;fontSize=11;" vertex="1" parent="bMdoZg1PZ41E8jryX1NN-106">
          <mxGeometry x="54" width="194" height="46" as="geometry">
            <mxRectangle width="194" height="46" as="alternateBounds" />
          </mxGeometry>
        </mxCell>
        <mxCell id="bMdoZg1PZ41E8jryX1NN-109" value="" style="shape=partialRectangle;connectable=0;fillColor=none;top=0;left=0;bottom=0;right=0;align=left;spacingLeft=2;overflow=hidden;fontSize=11;" vertex="1" parent="bMdoZg1PZ41E8jryX1NN-106">
          <mxGeometry x="248" width="22" height="46" as="geometry">
            <mxRectangle width="22" height="46" as="alternateBounds" />
          </mxGeometry>
        </mxCell>
        <mxCell id="bMdoZg1PZ41E8jryX1NN-110" style="shape=tableRow;horizontal=0;startSize=0;swimlaneHead=0;swimlaneBody=0;fillColor=none;collapsible=0;dropTarget=0;points=[[0,0.5],[1,0.5]];portConstraint=eastwest;top=0;left=0;right=0;bottom=0;" vertex="1" parent="bMdoZg1PZ41E8jryX1NN-89">
          <mxGeometry y="255" width="270" height="46" as="geometry" />
        </mxCell>
        <mxCell id="bMdoZg1PZ41E8jryX1NN-111" value="timestamp" style="shape=partialRectangle;connectable=0;fillColor=none;top=0;left=0;bottom=0;right=0;align=left;spacingLeft=2;overflow=hidden;fontSize=11;" vertex="1" parent="bMdoZg1PZ41E8jryX1NN-110">
          <mxGeometry width="54" height="46" as="geometry">
            <mxRectangle width="54" height="46" as="alternateBounds" />
          </mxGeometry>
        </mxCell>
        <mxCell id="bMdoZg1PZ41E8jryX1NN-112" value="created_at" style="shape=partialRectangle;connectable=0;fillColor=none;top=0;left=0;bottom=0;right=0;align=left;spacingLeft=2;overflow=hidden;fontSize=11;" vertex="1" parent="bMdoZg1PZ41E8jryX1NN-110">
          <mxGeometry x="54" width="194" height="46" as="geometry">
            <mxRectangle width="194" height="46" as="alternateBounds" />
          </mxGeometry>
        </mxCell>
        <mxCell id="bMdoZg1PZ41E8jryX1NN-113" value="" style="shape=partialRectangle;connectable=0;fillColor=none;top=0;left=0;bottom=0;right=0;align=left;spacingLeft=2;overflow=hidden;fontSize=11;" vertex="1" parent="bMdoZg1PZ41E8jryX1NN-110">
          <mxGeometry x="248" width="22" height="46" as="geometry">
            <mxRectangle width="22" height="46" as="alternateBounds" />
          </mxGeometry>
        </mxCell>
        <mxCell id="bMdoZg1PZ41E8jryX1NN-114" value="QUESTIONS" style="shape=table;startSize=25;container=1;collapsible=0;childLayout=tableLayout;fixedRows=1;rowLines=1;fontStyle=1;align=center;resizeLast=1;" vertex="1" parent="1">
          <mxGeometry x="1155" y="41" width="248" height="257" as="geometry" />
        </mxCell>
        <mxCell id="bMdoZg1PZ41E8jryX1NN-115" style="shape=tableRow;horizontal=0;startSize=0;swimlaneHead=0;swimlaneBody=0;fillColor=none;collapsible=0;dropTarget=0;points=[[0,0.5],[1,0.5]];portConstraint=eastwest;top=0;left=0;right=0;bottom=0;" vertex="1" parent="bMdoZg1PZ41E8jryX1NN-114">
          <mxGeometry y="25" width="248" height="46" as="geometry" />
        </mxCell>
        <mxCell id="bMdoZg1PZ41E8jryX1NN-116" value="int" style="shape=partialRectangle;connectable=0;fillColor=none;top=0;left=0;bottom=0;right=0;align=left;spacingLeft=2;overflow=hidden;fontSize=11;" vertex="1" parent="bMdoZg1PZ41E8jryX1NN-115">
          <mxGeometry width="54" height="46" as="geometry">
            <mxRectangle width="54" height="46" as="alternateBounds" />
          </mxGeometry>
        </mxCell>
        <mxCell id="bMdoZg1PZ41E8jryX1NN-117" value="id" style="shape=partialRectangle;connectable=0;fillColor=none;top=0;left=0;bottom=0;right=0;align=left;spacingLeft=2;overflow=hidden;fontSize=11;" vertex="1" parent="bMdoZg1PZ41E8jryX1NN-115">
          <mxGeometry x="54" width="172" height="46" as="geometry">
            <mxRectangle width="172" height="46" as="alternateBounds" />
          </mxGeometry>
        </mxCell>
        <mxCell id="bMdoZg1PZ41E8jryX1NN-118" value="PK" style="shape=partialRectangle;connectable=0;fillColor=none;top=0;left=0;bottom=0;right=0;align=left;spacingLeft=2;overflow=hidden;fontSize=11;" vertex="1" parent="bMdoZg1PZ41E8jryX1NN-115">
          <mxGeometry x="226" width="22" height="46" as="geometry">
            <mxRectangle width="22" height="46" as="alternateBounds" />
          </mxGeometry>
        </mxCell>
        <mxCell id="bMdoZg1PZ41E8jryX1NN-119" style="shape=tableRow;horizontal=0;startSize=0;swimlaneHead=0;swimlaneBody=0;fillColor=none;collapsible=0;dropTarget=0;points=[[0,0.5],[1,0.5]];portConstraint=eastwest;top=0;left=0;right=0;bottom=0;" vertex="1" parent="bMdoZg1PZ41E8jryX1NN-114">
          <mxGeometry y="71" width="248" height="46" as="geometry" />
        </mxCell>
        <mxCell id="bMdoZg1PZ41E8jryX1NN-120" value="text" style="shape=partialRectangle;connectable=0;fillColor=none;top=0;left=0;bottom=0;right=0;align=left;spacingLeft=2;overflow=hidden;fontSize=11;" vertex="1" parent="bMdoZg1PZ41E8jryX1NN-119">
          <mxGeometry width="54" height="46" as="geometry">
            <mxRectangle width="54" height="46" as="alternateBounds" />
          </mxGeometry>
        </mxCell>
        <mxCell id="bMdoZg1PZ41E8jryX1NN-121" value="text" style="shape=partialRectangle;connectable=0;fillColor=none;top=0;left=0;bottom=0;right=0;align=left;spacingLeft=2;overflow=hidden;fontSize=11;" vertex="1" parent="bMdoZg1PZ41E8jryX1NN-119">
          <mxGeometry x="54" width="172" height="46" as="geometry">
            <mxRectangle width="172" height="46" as="alternateBounds" />
          </mxGeometry>
        </mxCell>
        <mxCell id="bMdoZg1PZ41E8jryX1NN-122" value="" style="shape=partialRectangle;connectable=0;fillColor=none;top=0;left=0;bottom=0;right=0;align=left;spacingLeft=2;overflow=hidden;fontSize=11;" vertex="1" parent="bMdoZg1PZ41E8jryX1NN-119">
          <mxGeometry x="226" width="22" height="46" as="geometry">
            <mxRectangle width="22" height="46" as="alternateBounds" />
          </mxGeometry>
        </mxCell>
        <mxCell id="bMdoZg1PZ41E8jryX1NN-123" style="shape=tableRow;horizontal=0;startSize=0;swimlaneHead=0;swimlaneBody=0;fillColor=none;collapsible=0;dropTarget=0;points=[[0,0.5],[1,0.5]];portConstraint=eastwest;top=0;left=0;right=0;bottom=0;" vertex="1" parent="bMdoZg1PZ41E8jryX1NN-114">
          <mxGeometry y="117" width="248" height="46" as="geometry" />
        </mxCell>
        <mxCell id="bMdoZg1PZ41E8jryX1NN-124" value="text" style="shape=partialRectangle;connectable=0;fillColor=none;top=0;left=0;bottom=0;right=0;align=left;spacingLeft=2;overflow=hidden;fontSize=11;" vertex="1" parent="bMdoZg1PZ41E8jryX1NN-123">
          <mxGeometry width="54" height="46" as="geometry">
            <mxRectangle width="54" height="46" as="alternateBounds" />
          </mxGeometry>
        </mxCell>
        <mxCell id="bMdoZg1PZ41E8jryX1NN-125" value="type" style="shape=partialRectangle;connectable=0;fillColor=none;top=0;left=0;bottom=0;right=0;align=left;spacingLeft=2;overflow=hidden;fontSize=11;" vertex="1" parent="bMdoZg1PZ41E8jryX1NN-123">
          <mxGeometry x="54" width="172" height="46" as="geometry">
            <mxRectangle width="172" height="46" as="alternateBounds" />
          </mxGeometry>
        </mxCell>
        <mxCell id="bMdoZg1PZ41E8jryX1NN-126" value="" style="shape=partialRectangle;connectable=0;fillColor=none;top=0;left=0;bottom=0;right=0;align=left;spacingLeft=2;overflow=hidden;fontSize=11;" vertex="1" parent="bMdoZg1PZ41E8jryX1NN-123">
          <mxGeometry x="226" width="22" height="46" as="geometry">
            <mxRectangle width="22" height="46" as="alternateBounds" />
          </mxGeometry>
        </mxCell>
        <mxCell id="bMdoZg1PZ41E8jryX1NN-127" style="shape=tableRow;horizontal=0;startSize=0;swimlaneHead=0;swimlaneBody=0;fillColor=none;collapsible=0;dropTarget=0;points=[[0,0.5],[1,0.5]];portConstraint=eastwest;top=0;left=0;right=0;bottom=0;" vertex="1" parent="bMdoZg1PZ41E8jryX1NN-114">
          <mxGeometry y="163" width="248" height="46" as="geometry" />
        </mxCell>
        <mxCell id="bMdoZg1PZ41E8jryX1NN-128" value="int" style="shape=partialRectangle;connectable=0;fillColor=none;top=0;left=0;bottom=0;right=0;align=left;spacingLeft=2;overflow=hidden;fontSize=11;" vertex="1" parent="bMdoZg1PZ41E8jryX1NN-127">
          <mxGeometry width="54" height="46" as="geometry">
            <mxRectangle width="54" height="46" as="alternateBounds" />
          </mxGeometry>
        </mxCell>
        <mxCell id="bMdoZg1PZ41E8jryX1NN-129" value="version" style="shape=partialRectangle;connectable=0;fillColor=none;top=0;left=0;bottom=0;right=0;align=left;spacingLeft=2;overflow=hidden;fontSize=11;" vertex="1" parent="bMdoZg1PZ41E8jryX1NN-127">
          <mxGeometry x="54" width="172" height="46" as="geometry">
            <mxRectangle width="172" height="46" as="alternateBounds" />
          </mxGeometry>
        </mxCell>
        <mxCell id="bMdoZg1PZ41E8jryX1NN-130" value="" style="shape=partialRectangle;connectable=0;fillColor=none;top=0;left=0;bottom=0;right=0;align=left;spacingLeft=2;overflow=hidden;fontSize=11;" vertex="1" parent="bMdoZg1PZ41E8jryX1NN-127">
          <mxGeometry x="226" width="22" height="46" as="geometry">
            <mxRectangle width="22" height="46" as="alternateBounds" />
          </mxGeometry>
        </mxCell>
        <mxCell id="bMdoZg1PZ41E8jryX1NN-131" style="shape=tableRow;horizontal=0;startSize=0;swimlaneHead=0;swimlaneBody=0;fillColor=none;collapsible=0;dropTarget=0;points=[[0,0.5],[1,0.5]];portConstraint=eastwest;top=0;left=0;right=0;bottom=0;" vertex="1" parent="bMdoZg1PZ41E8jryX1NN-114">
          <mxGeometry y="209" width="248" height="46" as="geometry" />
        </mxCell>
        <mxCell id="bMdoZg1PZ41E8jryX1NN-132" value="timestamp" style="shape=partialRectangle;connectable=0;fillColor=none;top=0;left=0;bottom=0;right=0;align=left;spacingLeft=2;overflow=hidden;fontSize=11;" vertex="1" parent="bMdoZg1PZ41E8jryX1NN-131">
          <mxGeometry width="54" height="46" as="geometry">
            <mxRectangle width="54" height="46" as="alternateBounds" />
          </mxGeometry>
        </mxCell>
        <mxCell id="bMdoZg1PZ41E8jryX1NN-133" value="created_at" style="shape=partialRectangle;connectable=0;fillColor=none;top=0;left=0;bottom=0;right=0;align=left;spacingLeft=2;overflow=hidden;fontSize=11;" vertex="1" parent="bMdoZg1PZ41E8jryX1NN-131">
          <mxGeometry x="54" width="172" height="46" as="geometry">
            <mxRectangle width="172" height="46" as="alternateBounds" />
          </mxGeometry>
        </mxCell>
        <mxCell id="bMdoZg1PZ41E8jryX1NN-134" value="" style="shape=partialRectangle;connectable=0;fillColor=none;top=0;left=0;bottom=0;right=0;align=left;spacingLeft=2;overflow=hidden;fontSize=11;" vertex="1" parent="bMdoZg1PZ41E8jryX1NN-131">
          <mxGeometry x="226" width="22" height="46" as="geometry">
            <mxRectangle width="22" height="46" as="alternateBounds" />
          </mxGeometry>
        </mxCell>
        <mxCell id="bMdoZg1PZ41E8jryX1NN-135" value="COPY_TEXT" style="shape=table;startSize=25;container=1;collapsible=0;childLayout=tableLayout;fixedRows=1;rowLines=1;fontStyle=1;align=center;resizeLast=1;" vertex="1" parent="1">
          <mxGeometry x="1543" y="41" width="248" height="257" as="geometry" />
        </mxCell>
        <mxCell id="bMdoZg1PZ41E8jryX1NN-136" style="shape=tableRow;horizontal=0;startSize=0;swimlaneHead=0;swimlaneBody=0;fillColor=none;collapsible=0;dropTarget=0;points=[[0,0.5],[1,0.5]];portConstraint=eastwest;top=0;left=0;right=0;bottom=0;" vertex="1" parent="bMdoZg1PZ41E8jryX1NN-135">
          <mxGeometry y="25" width="248" height="46" as="geometry" />
        </mxCell>
        <mxCell id="bMdoZg1PZ41E8jryX1NN-137" value="int" style="shape=partialRectangle;connectable=0;fillColor=none;top=0;left=0;bottom=0;right=0;align=left;spacingLeft=2;overflow=hidden;fontSize=11;" vertex="1" parent="bMdoZg1PZ41E8jryX1NN-136">
          <mxGeometry width="54" height="46" as="geometry">
            <mxRectangle width="54" height="46" as="alternateBounds" />
          </mxGeometry>
        </mxCell>
        <mxCell id="bMdoZg1PZ41E8jryX1NN-138" value="id" style="shape=partialRectangle;connectable=0;fillColor=none;top=0;left=0;bottom=0;right=0;align=left;spacingLeft=2;overflow=hidden;fontSize=11;" vertex="1" parent="bMdoZg1PZ41E8jryX1NN-136">
          <mxGeometry x="54" width="172" height="46" as="geometry">
            <mxRectangle width="172" height="46" as="alternateBounds" />
          </mxGeometry>
        </mxCell>
        <mxCell id="bMdoZg1PZ41E8jryX1NN-139" value="PK" style="shape=partialRectangle;connectable=0;fillColor=none;top=0;left=0;bottom=0;right=0;align=left;spacingLeft=2;overflow=hidden;fontSize=11;" vertex="1" parent="bMdoZg1PZ41E8jryX1NN-136">
          <mxGeometry x="226" width="22" height="46" as="geometry">
            <mxRectangle width="22" height="46" as="alternateBounds" />
          </mxGeometry>
        </mxCell>
        <mxCell id="bMdoZg1PZ41E8jryX1NN-140" style="shape=tableRow;horizontal=0;startSize=0;swimlaneHead=0;swimlaneBody=0;fillColor=none;collapsible=0;dropTarget=0;points=[[0,0.5],[1,0.5]];portConstraint=eastwest;top=0;left=0;right=0;bottom=0;" vertex="1" parent="bMdoZg1PZ41E8jryX1NN-135">
          <mxGeometry y="71" width="248" height="46" as="geometry" />
        </mxCell>
        <mxCell id="bMdoZg1PZ41E8jryX1NN-141" value="text" style="shape=partialRectangle;connectable=0;fillColor=none;top=0;left=0;bottom=0;right=0;align=left;spacingLeft=2;overflow=hidden;fontSize=11;" vertex="1" parent="bMdoZg1PZ41E8jryX1NN-140">
          <mxGeometry width="54" height="46" as="geometry">
            <mxRectangle width="54" height="46" as="alternateBounds" />
          </mxGeometry>
        </mxCell>
        <mxCell id="bMdoZg1PZ41E8jryX1NN-142" value="key" style="shape=partialRectangle;connectable=0;fillColor=none;top=0;left=0;bottom=0;right=0;align=left;spacingLeft=2;overflow=hidden;fontSize=11;" vertex="1" parent="bMdoZg1PZ41E8jryX1NN-140">
          <mxGeometry x="54" width="172" height="46" as="geometry">
            <mxRectangle width="172" height="46" as="alternateBounds" />
          </mxGeometry>
        </mxCell>
        <mxCell id="bMdoZg1PZ41E8jryX1NN-143" value="" style="shape=partialRectangle;connectable=0;fillColor=none;top=0;left=0;bottom=0;right=0;align=left;spacingLeft=2;overflow=hidden;fontSize=11;" vertex="1" parent="bMdoZg1PZ41E8jryX1NN-140">
          <mxGeometry x="226" width="22" height="46" as="geometry">
            <mxRectangle width="22" height="46" as="alternateBounds" />
          </mxGeometry>
        </mxCell>
        <mxCell id="bMdoZg1PZ41E8jryX1NN-144" style="shape=tableRow;horizontal=0;startSize=0;swimlaneHead=0;swimlaneBody=0;fillColor=none;collapsible=0;dropTarget=0;points=[[0,0.5],[1,0.5]];portConstraint=eastwest;top=0;left=0;right=0;bottom=0;" vertex="1" parent="bMdoZg1PZ41E8jryX1NN-135">
          <mxGeometry y="117" width="248" height="46" as="geometry" />
        </mxCell>
        <mxCell id="bMdoZg1PZ41E8jryX1NN-145" value="text" style="shape=partialRectangle;connectable=0;fillColor=none;top=0;left=0;bottom=0;right=0;align=left;spacingLeft=2;overflow=hidden;fontSize=11;" vertex="1" parent="bMdoZg1PZ41E8jryX1NN-144">
          <mxGeometry width="54" height="46" as="geometry">
            <mxRectangle width="54" height="46" as="alternateBounds" />
          </mxGeometry>
        </mxCell>
        <mxCell id="bMdoZg1PZ41E8jryX1NN-146" value="text" style="shape=partialRectangle;connectable=0;fillColor=none;top=0;left=0;bottom=0;right=0;align=left;spacingLeft=2;overflow=hidden;fontSize=11;" vertex="1" parent="bMdoZg1PZ41E8jryX1NN-144">
          <mxGeometry x="54" width="172" height="46" as="geometry">
            <mxRectangle width="172" height="46" as="alternateBounds" />
          </mxGeometry>
        </mxCell>
        <mxCell id="bMdoZg1PZ41E8jryX1NN-147" value="" style="shape=partialRectangle;connectable=0;fillColor=none;top=0;left=0;bottom=0;right=0;align=left;spacingLeft=2;overflow=hidden;fontSize=11;" vertex="1" parent="bMdoZg1PZ41E8jryX1NN-144">
          <mxGeometry x="226" width="22" height="46" as="geometry">
            <mxRectangle width="22" height="46" as="alternateBounds" />
          </mxGeometry>
        </mxCell>
        <mxCell id="bMdoZg1PZ41E8jryX1NN-148" style="shape=tableRow;horizontal=0;startSize=0;swimlaneHead=0;swimlaneBody=0;fillColor=none;collapsible=0;dropTarget=0;points=[[0,0.5],[1,0.5]];portConstraint=eastwest;top=0;left=0;right=0;bottom=0;" vertex="1" parent="bMdoZg1PZ41E8jryX1NN-135">
          <mxGeometry y="163" width="248" height="46" as="geometry" />
        </mxCell>
        <mxCell id="bMdoZg1PZ41E8jryX1NN-149" value="int" style="shape=partialRectangle;connectable=0;fillColor=none;top=0;left=0;bottom=0;right=0;align=left;spacingLeft=2;overflow=hidden;fontSize=11;" vertex="1" parent="bMdoZg1PZ41E8jryX1NN-148">
          <mxGeometry width="54" height="46" as="geometry">
            <mxRectangle width="54" height="46" as="alternateBounds" />
          </mxGeometry>
        </mxCell>
        <mxCell id="bMdoZg1PZ41E8jryX1NN-150" value="version" style="shape=partialRectangle;connectable=0;fillColor=none;top=0;left=0;bottom=0;right=0;align=left;spacingLeft=2;overflow=hidden;fontSize=11;" vertex="1" parent="bMdoZg1PZ41E8jryX1NN-148">
          <mxGeometry x="54" width="172" height="46" as="geometry">
            <mxRectangle width="172" height="46" as="alternateBounds" />
          </mxGeometry>
        </mxCell>
        <mxCell id="bMdoZg1PZ41E8jryX1NN-151" value="" style="shape=partialRectangle;connectable=0;fillColor=none;top=0;left=0;bottom=0;right=0;align=left;spacingLeft=2;overflow=hidden;fontSize=11;" vertex="1" parent="bMdoZg1PZ41E8jryX1NN-148">
          <mxGeometry x="226" width="22" height="46" as="geometry">
            <mxRectangle width="22" height="46" as="alternateBounds" />
          </mxGeometry>
        </mxCell>
        <mxCell id="bMdoZg1PZ41E8jryX1NN-152" style="shape=tableRow;horizontal=0;startSize=0;swimlaneHead=0;swimlaneBody=0;fillColor=none;collapsible=0;dropTarget=0;points=[[0,0.5],[1,0.5]];portConstraint=eastwest;top=0;left=0;right=0;bottom=0;" vertex="1" parent="bMdoZg1PZ41E8jryX1NN-135">
          <mxGeometry y="209" width="248" height="46" as="geometry" />
        </mxCell>
        <mxCell id="bMdoZg1PZ41E8jryX1NN-153" value="timestamp" style="shape=partialRectangle;connectable=0;fillColor=none;top=0;left=0;bottom=0;right=0;align=left;spacingLeft=2;overflow=hidden;fontSize=11;" vertex="1" parent="bMdoZg1PZ41E8jryX1NN-152">
          <mxGeometry width="54" height="46" as="geometry">
            <mxRectangle width="54" height="46" as="alternateBounds" />
          </mxGeometry>
        </mxCell>
        <mxCell id="bMdoZg1PZ41E8jryX1NN-154" value="created_at" style="shape=partialRectangle;connectable=0;fillColor=none;top=0;left=0;bottom=0;right=0;align=left;spacingLeft=2;overflow=hidden;fontSize=11;" vertex="1" parent="bMdoZg1PZ41E8jryX1NN-152">
          <mxGeometry x="54" width="172" height="46" as="geometry">
            <mxRectangle width="172" height="46" as="alternateBounds" />
          </mxGeometry>
        </mxCell>
        <mxCell id="bMdoZg1PZ41E8jryX1NN-155" value="" style="shape=partialRectangle;connectable=0;fillColor=none;top=0;left=0;bottom=0;right=0;align=left;spacingLeft=2;overflow=hidden;fontSize=11;" vertex="1" parent="bMdoZg1PZ41E8jryX1NN-152">
          <mxGeometry x="226" width="22" height="46" as="geometry">
            <mxRectangle width="22" height="46" as="alternateBounds" />
          </mxGeometry>
        </mxCell>
        <mxCell id="bMdoZg1PZ41E8jryX1NN-156" value="LEADS" style="shape=table;startSize=25;container=1;collapsible=0;childLayout=tableLayout;fixedRows=1;rowLines=1;fontStyle=1;align=center;resizeLast=1;" vertex="1" parent="1">
          <mxGeometry x="367" y="422" width="248" height="301" as="geometry" />
        </mxCell>
        <mxCell id="bMdoZg1PZ41E8jryX1NN-157" style="shape=tableRow;horizontal=0;startSize=0;swimlaneHead=0;swimlaneBody=0;fillColor=none;collapsible=0;dropTarget=0;points=[[0,0.5],[1,0.5]];portConstraint=eastwest;top=0;left=0;right=0;bottom=0;" vertex="1" parent="bMdoZg1PZ41E8jryX1NN-156">
          <mxGeometry y="25" width="248" height="46" as="geometry" />
        </mxCell>
        <mxCell id="bMdoZg1PZ41E8jryX1NN-158" value="uuid" style="shape=partialRectangle;connectable=0;fillColor=none;top=0;left=0;bottom=0;right=0;align=left;spacingLeft=2;overflow=hidden;fontSize=11;" vertex="1" parent="bMdoZg1PZ41E8jryX1NN-157">
          <mxGeometry width="54" height="46" as="geometry">
            <mxRectangle width="54" height="46" as="alternateBounds" />
          </mxGeometry>
        </mxCell>
        <mxCell id="bMdoZg1PZ41E8jryX1NN-159" value="id" style="shape=partialRectangle;connectable=0;fillColor=none;top=0;left=0;bottom=0;right=0;align=left;spacingLeft=2;overflow=hidden;fontSize=11;" vertex="1" parent="bMdoZg1PZ41E8jryX1NN-157">
          <mxGeometry x="54" width="172" height="46" as="geometry">
            <mxRectangle width="172" height="46" as="alternateBounds" />
          </mxGeometry>
        </mxCell>
        <mxCell id="bMdoZg1PZ41E8jryX1NN-160" value="PK" style="shape=partialRectangle;connectable=0;fillColor=none;top=0;left=0;bottom=0;right=0;align=left;spacingLeft=2;overflow=hidden;fontSize=11;" vertex="1" parent="bMdoZg1PZ41E8jryX1NN-157">
          <mxGeometry x="226" width="22" height="46" as="geometry">
            <mxRectangle width="22" height="46" as="alternateBounds" />
          </mxGeometry>
        </mxCell>
        <mxCell id="bMdoZg1PZ41E8jryX1NN-161" style="shape=tableRow;horizontal=0;startSize=0;swimlaneHead=0;swimlaneBody=0;fillColor=none;collapsible=0;dropTarget=0;points=[[0,0.5],[1,0.5]];portConstraint=eastwest;top=0;left=0;right=0;bottom=0;" vertex="1" parent="bMdoZg1PZ41E8jryX1NN-156">
          <mxGeometry y="71" width="248" height="46" as="geometry" />
        </mxCell>
        <mxCell id="bMdoZg1PZ41E8jryX1NN-162" value="uuid" style="shape=partialRectangle;connectable=0;fillColor=none;top=0;left=0;bottom=0;right=0;align=left;spacingLeft=2;overflow=hidden;fontSize=11;" vertex="1" parent="bMdoZg1PZ41E8jryX1NN-161">
          <mxGeometry width="54" height="46" as="geometry">
            <mxRectangle width="54" height="46" as="alternateBounds" />
          </mxGeometry>
        </mxCell>
        <mxCell id="bMdoZg1PZ41E8jryX1NN-163" value="session_id" style="shape=partialRectangle;connectable=0;fillColor=none;top=0;left=0;bottom=0;right=0;align=left;spacingLeft=2;overflow=hidden;fontSize=11;" vertex="1" parent="bMdoZg1PZ41E8jryX1NN-161">
          <mxGeometry x="54" width="172" height="46" as="geometry">
            <mxRectangle width="172" height="46" as="alternateBounds" />
          </mxGeometry>
        </mxCell>
        <mxCell id="bMdoZg1PZ41E8jryX1NN-164" value="" style="shape=partialRectangle;connectable=0;fillColor=none;top=0;left=0;bottom=0;right=0;align=left;spacingLeft=2;overflow=hidden;fontSize=11;" vertex="1" parent="bMdoZg1PZ41E8jryX1NN-161">
          <mxGeometry x="226" width="22" height="46" as="geometry">
            <mxRectangle width="22" height="46" as="alternateBounds" />
          </mxGeometry>
        </mxCell>
        <mxCell id="bMdoZg1PZ41E8jryX1NN-165" style="shape=tableRow;horizontal=0;startSize=0;swimlaneHead=0;swimlaneBody=0;fillColor=none;collapsible=0;dropTarget=0;points=[[0,0.5],[1,0.5]];portConstraint=eastwest;top=0;left=0;right=0;bottom=0;" vertex="1" parent="bMdoZg1PZ41E8jryX1NN-156">
          <mxGeometry y="117" width="248" height="46" as="geometry" />
        </mxCell>
        <mxCell id="bMdoZg1PZ41E8jryX1NN-166" value="text" style="shape=partialRectangle;connectable=0;fillColor=none;top=0;left=0;bottom=0;right=0;align=left;spacingLeft=2;overflow=hidden;fontSize=11;" vertex="1" parent="bMdoZg1PZ41E8jryX1NN-165">
          <mxGeometry width="54" height="46" as="geometry">
            <mxRectangle width="54" height="46" as="alternateBounds" />
          </mxGeometry>
        </mxCell>
        <mxCell id="bMdoZg1PZ41E8jryX1NN-167" value="email" style="shape=partialRectangle;connectable=0;fillColor=none;top=0;left=0;bottom=0;right=0;align=left;spacingLeft=2;overflow=hidden;fontSize=11;" vertex="1" parent="bMdoZg1PZ41E8jryX1NN-165">
          <mxGeometry x="54" width="172" height="46" as="geometry">
            <mxRectangle width="172" height="46" as="alternateBounds" />
          </mxGeometry>
        </mxCell>
        <mxCell id="bMdoZg1PZ41E8jryX1NN-168" value="" style="shape=partialRectangle;connectable=0;fillColor=none;top=0;left=0;bottom=0;right=0;align=left;spacingLeft=2;overflow=hidden;fontSize=11;" vertex="1" parent="bMdoZg1PZ41E8jryX1NN-165">
          <mxGeometry x="226" width="22" height="46" as="geometry">
            <mxRectangle width="22" height="46" as="alternateBounds" />
          </mxGeometry>
        </mxCell>
        <mxCell id="bMdoZg1PZ41E8jryX1NN-169" style="shape=tableRow;horizontal=0;startSize=0;swimlaneHead=0;swimlaneBody=0;fillColor=none;collapsible=0;dropTarget=0;points=[[0,0.5],[1,0.5]];portConstraint=eastwest;top=0;left=0;right=0;bottom=0;" vertex="1" parent="bMdoZg1PZ41E8jryX1NN-156">
          <mxGeometry y="163" width="248" height="46" as="geometry" />
        </mxCell>
        <mxCell id="bMdoZg1PZ41E8jryX1NN-170" value="boolean" style="shape=partialRectangle;connectable=0;fillColor=none;top=0;left=0;bottom=0;right=0;align=left;spacingLeft=2;overflow=hidden;fontSize=11;" vertex="1" parent="bMdoZg1PZ41E8jryX1NN-169">
          <mxGeometry width="54" height="46" as="geometry">
            <mxRectangle width="54" height="46" as="alternateBounds" />
          </mxGeometry>
        </mxCell>
        <mxCell id="bMdoZg1PZ41E8jryX1NN-171" value="consent" style="shape=partialRectangle;connectable=0;fillColor=none;top=0;left=0;bottom=0;right=0;align=left;spacingLeft=2;overflow=hidden;fontSize=11;" vertex="1" parent="bMdoZg1PZ41E8jryX1NN-169">
          <mxGeometry x="54" width="172" height="46" as="geometry">
            <mxRectangle width="172" height="46" as="alternateBounds" />
          </mxGeometry>
        </mxCell>
        <mxCell id="bMdoZg1PZ41E8jryX1NN-172" value="" style="shape=partialRectangle;connectable=0;fillColor=none;top=0;left=0;bottom=0;right=0;align=left;spacingLeft=2;overflow=hidden;fontSize=11;" vertex="1" parent="bMdoZg1PZ41E8jryX1NN-169">
          <mxGeometry x="226" width="22" height="46" as="geometry">
            <mxRectangle width="22" height="46" as="alternateBounds" />
          </mxGeometry>
        </mxCell>
        <mxCell id="bMdoZg1PZ41E8jryX1NN-173" style="shape=tableRow;horizontal=0;startSize=0;swimlaneHead=0;swimlaneBody=0;fillColor=none;collapsible=0;dropTarget=0;points=[[0,0.5],[1,0.5]];portConstraint=eastwest;top=0;left=0;right=0;bottom=0;" vertex="1" parent="bMdoZg1PZ41E8jryX1NN-156">
          <mxGeometry y="209" width="248" height="46" as="geometry" />
        </mxCell>
        <mxCell id="bMdoZg1PZ41E8jryX1NN-174" value="boolean" style="shape=partialRectangle;connectable=0;fillColor=none;top=0;left=0;bottom=0;right=0;align=left;spacingLeft=2;overflow=hidden;fontSize=11;" vertex="1" parent="bMdoZg1PZ41E8jryX1NN-173">
          <mxGeometry width="54" height="46" as="geometry">
            <mxRectangle width="54" height="46" as="alternateBounds" />
          </mxGeometry>
        </mxCell>
        <mxCell id="bMdoZg1PZ41E8jryX1NN-175" value="synced" style="shape=partialRectangle;connectable=0;fillColor=none;top=0;left=0;bottom=0;right=0;align=left;spacingLeft=2;overflow=hidden;fontSize=11;" vertex="1" parent="bMdoZg1PZ41E8jryX1NN-173">
          <mxGeometry x="54" width="172" height="46" as="geometry">
            <mxRectangle width="172" height="46" as="alternateBounds" />
          </mxGeometry>
        </mxCell>
        <mxCell id="bMdoZg1PZ41E8jryX1NN-176" value="" style="shape=partialRectangle;connectable=0;fillColor=none;top=0;left=0;bottom=0;right=0;align=left;spacingLeft=2;overflow=hidden;fontSize=11;" vertex="1" parent="bMdoZg1PZ41E8jryX1NN-173">
          <mxGeometry x="226" width="22" height="46" as="geometry">
            <mxRectangle width="22" height="46" as="alternateBounds" />
          </mxGeometry>
        </mxCell>
        <mxCell id="bMdoZg1PZ41E8jryX1NN-177" style="shape=tableRow;horizontal=0;startSize=0;swimlaneHead=0;swimlaneBody=0;fillColor=none;collapsible=0;dropTarget=0;points=[[0,0.5],[1,0.5]];portConstraint=eastwest;top=0;left=0;right=0;bottom=0;" vertex="1" parent="bMdoZg1PZ41E8jryX1NN-156">
          <mxGeometry y="255" width="248" height="46" as="geometry" />
        </mxCell>
        <mxCell id="bMdoZg1PZ41E8jryX1NN-178" value="timestamp" style="shape=partialRectangle;connectable=0;fillColor=none;top=0;left=0;bottom=0;right=0;align=left;spacingLeft=2;overflow=hidden;fontSize=11;" vertex="1" parent="bMdoZg1PZ41E8jryX1NN-177">
          <mxGeometry width="54" height="46" as="geometry">
            <mxRectangle width="54" height="46" as="alternateBounds" />
          </mxGeometry>
        </mxCell>
        <mxCell id="bMdoZg1PZ41E8jryX1NN-179" value="created_at" style="shape=partialRectangle;connectable=0;fillColor=none;top=0;left=0;bottom=0;right=0;align=left;spacingLeft=2;overflow=hidden;fontSize=11;" vertex="1" parent="bMdoZg1PZ41E8jryX1NN-177">
          <mxGeometry x="54" width="172" height="46" as="geometry">
            <mxRectangle width="172" height="46" as="alternateBounds" />
          </mxGeometry>
        </mxCell>
        <mxCell id="bMdoZg1PZ41E8jryX1NN-180" value="" style="shape=partialRectangle;connectable=0;fillColor=none;top=0;left=0;bottom=0;right=0;align=left;spacingLeft=2;overflow=hidden;fontSize=11;" vertex="1" parent="bMdoZg1PZ41E8jryX1NN-177">
          <mxGeometry x="226" width="22" height="46" as="geometry">
            <mxRectangle width="22" height="46" as="alternateBounds" />
          </mxGeometry>
        </mxCell>
        <mxCell id="bMdoZg1PZ41E8jryX1NN-181" value="QUIZ_ANSWERS" style="shape=table;startSize=25;container=1;collapsible=0;childLayout=tableLayout;fixedRows=1;rowLines=1;fontStyle=1;align=center;resizeLast=1;" vertex="1" parent="1">
          <mxGeometry x="20" y="465" width="207" height="214" as="geometry" />
        </mxCell>
        <mxCell id="bMdoZg1PZ41E8jryX1NN-182" style="shape=tableRow;horizontal=0;startSize=0;swimlaneHead=0;swimlaneBody=0;fillColor=none;collapsible=0;dropTarget=0;points=[[0,0.5],[1,0.5]];portConstraint=eastwest;top=0;left=0;right=0;bottom=0;" vertex="1" parent="bMdoZg1PZ41E8jryX1NN-181">
          <mxGeometry y="25" width="207" height="47" as="geometry" />
        </mxCell>
        <mxCell id="bMdoZg1PZ41E8jryX1NN-183" value="uuid" style="shape=partialRectangle;connectable=0;fillColor=none;top=0;left=0;bottom=0;right=0;align=left;spacingLeft=2;overflow=hidden;fontSize=11;" vertex="1" parent="bMdoZg1PZ41E8jryX1NN-182">
          <mxGeometry width="24" height="47" as="geometry">
            <mxRectangle width="24" height="47" as="alternateBounds" />
          </mxGeometry>
        </mxCell>
        <mxCell id="bMdoZg1PZ41E8jryX1NN-184" value="id" style="shape=partialRectangle;connectable=0;fillColor=none;top=0;left=0;bottom=0;right=0;align=left;spacingLeft=2;overflow=hidden;fontSize=11;" vertex="1" parent="bMdoZg1PZ41E8jryX1NN-182">
          <mxGeometry x="24" width="161" height="47" as="geometry">
            <mxRectangle width="161" height="47" as="alternateBounds" />
          </mxGeometry>
        </mxCell>
        <mxCell id="bMdoZg1PZ41E8jryX1NN-185" value="PK" style="shape=partialRectangle;connectable=0;fillColor=none;top=0;left=0;bottom=0;right=0;align=left;spacingLeft=2;overflow=hidden;fontSize=11;" vertex="1" parent="bMdoZg1PZ41E8jryX1NN-182">
          <mxGeometry x="185" width="22" height="47" as="geometry">
            <mxRectangle width="22" height="47" as="alternateBounds" />
          </mxGeometry>
        </mxCell>
        <mxCell id="bMdoZg1PZ41E8jryX1NN-186" style="shape=tableRow;horizontal=0;startSize=0;swimlaneHead=0;swimlaneBody=0;fillColor=none;collapsible=0;dropTarget=0;points=[[0,0.5],[1,0.5]];portConstraint=eastwest;top=0;left=0;right=0;bottom=0;" vertex="1" parent="bMdoZg1PZ41E8jryX1NN-181">
          <mxGeometry y="72" width="207" height="47" as="geometry" />
        </mxCell>
        <mxCell id="bMdoZg1PZ41E8jryX1NN-187" value="uuid" style="shape=partialRectangle;connectable=0;fillColor=none;top=0;left=0;bottom=0;right=0;align=left;spacingLeft=2;overflow=hidden;fontSize=11;" vertex="1" parent="bMdoZg1PZ41E8jryX1NN-186">
          <mxGeometry width="24" height="47" as="geometry">
            <mxRectangle width="24" height="47" as="alternateBounds" />
          </mxGeometry>
        </mxCell>
        <mxCell id="bMdoZg1PZ41E8jryX1NN-188" value="session_id" style="shape=partialRectangle;connectable=0;fillColor=none;top=0;left=0;bottom=0;right=0;align=left;spacingLeft=2;overflow=hidden;fontSize=11;" vertex="1" parent="bMdoZg1PZ41E8jryX1NN-186">
          <mxGeometry x="24" width="161" height="47" as="geometry">
            <mxRectangle width="161" height="47" as="alternateBounds" />
          </mxGeometry>
        </mxCell>
        <mxCell id="bMdoZg1PZ41E8jryX1NN-189" value="" style="shape=partialRectangle;connectable=0;fillColor=none;top=0;left=0;bottom=0;right=0;align=left;spacingLeft=2;overflow=hidden;fontSize=11;" vertex="1" parent="bMdoZg1PZ41E8jryX1NN-186">
          <mxGeometry x="185" width="22" height="47" as="geometry">
            <mxRectangle width="22" height="47" as="alternateBounds" />
          </mxGeometry>
        </mxCell>
        <mxCell id="bMdoZg1PZ41E8jryX1NN-190" style="shape=tableRow;horizontal=0;startSize=0;swimlaneHead=0;swimlaneBody=0;fillColor=none;collapsible=0;dropTarget=0;points=[[0,0.5],[1,0.5]];portConstraint=eastwest;top=0;left=0;right=0;bottom=0;" vertex="1" parent="bMdoZg1PZ41E8jryX1NN-181">
          <mxGeometry y="119" width="207" height="47" as="geometry" />
        </mxCell>
        <mxCell id="bMdoZg1PZ41E8jryX1NN-191" value="int" style="shape=partialRectangle;connectable=0;fillColor=none;top=0;left=0;bottom=0;right=0;align=left;spacingLeft=2;overflow=hidden;fontSize=11;" vertex="1" parent="bMdoZg1PZ41E8jryX1NN-190">
          <mxGeometry width="24" height="47" as="geometry">
            <mxRectangle width="24" height="47" as="alternateBounds" />
          </mxGeometry>
        </mxCell>
        <mxCell id="bMdoZg1PZ41E8jryX1NN-192" value="question_id" style="shape=partialRectangle;connectable=0;fillColor=none;top=0;left=0;bottom=0;right=0;align=left;spacingLeft=2;overflow=hidden;fontSize=11;" vertex="1" parent="bMdoZg1PZ41E8jryX1NN-190">
          <mxGeometry x="24" width="161" height="47" as="geometry">
            <mxRectangle width="161" height="47" as="alternateBounds" />
          </mxGeometry>
        </mxCell>
        <mxCell id="bMdoZg1PZ41E8jryX1NN-193" value="" style="shape=partialRectangle;connectable=0;fillColor=none;top=0;left=0;bottom=0;right=0;align=left;spacingLeft=2;overflow=hidden;fontSize=11;" vertex="1" parent="bMdoZg1PZ41E8jryX1NN-190">
          <mxGeometry x="185" width="22" height="47" as="geometry">
            <mxRectangle width="22" height="47" as="alternateBounds" />
          </mxGeometry>
        </mxCell>
        <mxCell id="bMdoZg1PZ41E8jryX1NN-194" style="shape=tableRow;horizontal=0;startSize=0;swimlaneHead=0;swimlaneBody=0;fillColor=none;collapsible=0;dropTarget=0;points=[[0,0.5],[1,0.5]];portConstraint=eastwest;top=0;left=0;right=0;bottom=0;" vertex="1" parent="bMdoZg1PZ41E8jryX1NN-181">
          <mxGeometry y="166" width="207" height="47" as="geometry" />
        </mxCell>
        <mxCell id="bMdoZg1PZ41E8jryX1NN-195" value="text" style="shape=partialRectangle;connectable=0;fillColor=none;top=0;left=0;bottom=0;right=0;align=left;spacingLeft=2;overflow=hidden;fontSize=11;" vertex="1" parent="bMdoZg1PZ41E8jryX1NN-194">
          <mxGeometry width="24" height="47" as="geometry">
            <mxRectangle width="24" height="47" as="alternateBounds" />
          </mxGeometry>
        </mxCell>
        <mxCell id="bMdoZg1PZ41E8jryX1NN-196" value="answer_id" style="shape=partialRectangle;connectable=0;fillColor=none;top=0;left=0;bottom=0;right=0;align=left;spacingLeft=2;overflow=hidden;fontSize=11;" vertex="1" parent="bMdoZg1PZ41E8jryX1NN-194">
          <mxGeometry x="24" width="161" height="47" as="geometry">
            <mxRectangle width="161" height="47" as="alternateBounds" />
          </mxGeometry>
        </mxCell>
        <mxCell id="bMdoZg1PZ41E8jryX1NN-197" value="" style="shape=partialRectangle;connectable=0;fillColor=none;top=0;left=0;bottom=0;right=0;align=left;spacingLeft=2;overflow=hidden;fontSize=11;" vertex="1" parent="bMdoZg1PZ41E8jryX1NN-194">
          <mxGeometry x="185" width="22" height="47" as="geometry">
            <mxRectangle width="22" height="47" as="alternateBounds" />
          </mxGeometry>
        </mxCell>
        <mxCell id="bMdoZg1PZ41E8jryX1NN-198" value="has" style="curved=1;startArrow=ERmandOne;startSize=10;;endArrow=ERzeroToMany;endSize=10;;exitX=0;exitY=0.62;entryX=0.5;entryY=0;rounded=0;" edge="1" parent="1" source="bMdoZg1PZ41E8jryX1NN-18" target="bMdoZg1PZ41E8jryX1NN-181">
          <mxGeometry relative="1" as="geometry">
            <Array as="points">
              <mxPoint x="124" y="371" />
            </Array>
          </mxGeometry>
        </mxCell>
        <mxCell id="bMdoZg1PZ41E8jryX1NN-199" value="may_have" style="curved=1;startArrow=ERmandOne;startSize=10;;endArrow=ERzeroToOne;endSize=10;;exitX=0;exitY=0.73;entryX=0.5;entryY=0;rounded=0;" edge="1" parent="1" source="bMdoZg1PZ41E8jryX1NN-18" target="bMdoZg1PZ41E8jryX1NN-156">
          <mxGeometry relative="1" as="geometry">
            <Array as="points">
              <mxPoint x="491" y="371" />
            </Array>
          </mxGeometry>
        </mxCell>
        <mxCell id="bMdoZg1PZ41E8jryX1NN-200" value="may_have" style="curved=1;startArrow=ERmandOne;startSize=10;;endArrow=ERzeroToMany;endSize=10;;exitX=0.5;exitY=1;entryX=0.5;entryY=0;rounded=0;" edge="1" parent="1" source="bMdoZg1PZ41E8jryX1NN-18" target="bMdoZg1PZ41E8jryX1NN-64">
          <mxGeometry relative="1" as="geometry">
            <Array as="points" />
          </mxGeometry>
        </mxCell>
        <mxCell id="bMdoZg1PZ41E8jryX1NN-201" value="generates" style="curved=1;startArrow=ERmandOne;startSize=10;;endArrow=ERzeroToMany;endSize=10;;exitX=1;exitY=0.73;entryX=0.5;entryY=0;rounded=0;" edge="1" parent="1" source="bMdoZg1PZ41E8jryX1NN-18" target="bMdoZg1PZ41E8jryX1NN-89">
          <mxGeometry relative="1" as="geometry">
            <Array as="points">
              <mxPoint x="1282" y="371" />
            </Array>
          </mxGeometry>
        </mxCell>
        <mxCell id="bMdoZg1PZ41E8jryX1NN-202" value="snapshot_for" style="curved=1;startArrow=ERmandOne;startSize=10;;endArrow=ERzeroToMany;endSize=10;;exitX=1;exitY=0.61;entryX=0.5;entryY=0;rounded=0;" edge="1" parent="1" source="bMdoZg1PZ41E8jryX1NN-18" target="bMdoZg1PZ41E8jryX1NN-43">
          <mxGeometry relative="1" as="geometry">
            <Array as="points">
              <mxPoint x="1681" y="371" />
            </Array>
          </mxGeometry>
        </mxCell>
      </root>
    </mxGraphModel>
  </diagram>
</mxfile>
